<?xml version="1.0" encoding="UTF-8" standalone="no"?>
<!DOCTYPE svg PUBLIC "-//W3C//DTD SVG 1.1//EN" "http://www.w3.org/Graphics/SVG/1.1/DTD/svg11.dtd">
<!-- Generated by Microsoft Visio, SVG Export diagram 02.svg Interaction diagram -->
<svg xmlns="http://www.w3.org/2000/svg" xmlns:xlink="http://www.w3.org/1999/xlink" xmlns:ev="http://www.w3.org/2001/xml-events"
		xmlns:v="http://schemas.microsoft.com/visio/2003/SVGExtensions/" width="11.6929in" height="8.26772in"
		viewBox="0 0 841.89 595.276" xml:space="preserve" color-interpolation-filters="sRGB" class="st13">
	<v:documentProperties v:langID="1033" v:viewMarkup="false">
		<v:userDefs>
			<v:ud v:nameU="msvNoAutoConnect" v:val="VT0(1):26"/>
		</v:userDefs>
	</v:documentProperties>

	<style type="text/css">
	<![CDATA[
		.st1 {stroke:#000000;stroke-dasharray:3.6,2.16;stroke-linecap:round;stroke-linejoin:round;stroke-width:0.24}
		.st2 {fill:#ffffff}
		.st3 {stroke:#000000;stroke-linecap:round;stroke-linejoin:round;stroke-width:0.24}
		.st4 {fill:#000000;font-family:Calibri;font-size:0.666664em}
		.st5 {font-size:1em}
		.st6 {marker-end:url(#mrkr4-145);stroke:#000000;stroke-linecap:round;stroke-linejoin:round;stroke-width:0.24}
		.st7 {fill:#000000;fill-opacity:1;stroke:#000000;stroke-opacity:1;stroke-width:0.08695652173913}
		.st8 {fill:#ffffff;stroke:none;stroke-linecap:butt;stroke-width:7.2}
		.st9 {fill:#e6e6e6;stroke:#000000;stroke-linecap:round;stroke-linejoin:round;stroke-width:0.24}
		.st10 {fill:#ffffff;stroke:#000000;stroke-linecap:round;stroke-linejoin:round;stroke-width:0.24}
		.st11 {fill:#000000;font-family:Calibri;font-size:0.666664em;font-weight:bold}
		.st12 {fill:#ffffff;stroke:none;stroke-linecap:butt}
		.st13 {fill:none;fill-rule:evenodd;font-size:12px;overflow:visible;stroke-linecap:square;stroke-miterlimit:3}
	]]>
	</style>

	<defs id="Markers">
		<g id="lend4">
			<path d="M 2 1 L 0 0 L 2 -1 L 2 1 " style="stroke:none"/>
		</g>
		<marker id="mrkr4-145" class="st7" v:arrowType="4" v:arrowSize="2" v:setback="23" refX="-23" orient="auto"
				markerUnits="strokeWidth" overflow="visible">
			<use xlink:href="#lend4" transform="scale(-11.5,-11.5) "/>
		</marker>
	</defs>
	<g v:mID="5" v:index="2" v:groupContext="foregroundPage">
		<title>App sequence diagram 01</title>
		<v:pageProperties v:drawingScale="1" v:pageScale="1" v:drawingUnits="19" v:shadowOffsetX="9" v:shadowOffsetY="-9"/>
		<g id="shape232-1" v:mID="232" v:groupContext="shape" transform="translate(54,650.551) scale(1,-1)">
			<title>Lifeline</title>
			<path d="M0 595.28 L0 388.28" class="st1"/>
		</g>
		<g id="group239-4" transform="translate(18,-540)" v:mID="239" v:groupContext="group">
			<v:userDefs>
				<v:ud v:nameU="F" v:val="VT0(1):26"/>
				<v:ud v:nameU="Format" v:val="VT0(0):26"/>
				<v:ud v:nameU="ActiveObject" v:prompt="0,0626" v:val="VT0(0):26"/>
			</v:userDefs>
			<title>Part, Lifeline</title>
			<g id="shape240-5" v:mID="240" v:groupContext="shape" transform="translate(72,0)">
				<title>Sheet.240</title>
				<path d="M0 595.28 L0 559.28 L0 595.28 Z" class="st2"/>
			</g>
			<g id="shape241-8" v:mID="241" v:groupContext="shape">
				<title>Sheet.241</title>
				<path d="M72 595.28 L0 595.28 L72 595.28 Z" class="st2"/>
			</g>
			<g id="shape242-11" v:mID="242" v:groupContext="shape">
				<title>Sheet.242</title>
				<path d="M72 595.28 L0 595.28 L72 595.28 Z" class="st2"/>
			</g>
			<g id="shape243-14" v:mID="243" v:groupContext="shape">
				<title>Sheet.243</title>
				<path d="M72 595.28 L0 595.28 L72 595.28 Z" class="st2"/>
			</g>
			<g id="shape244-17" v:mID="244" v:groupContext="shape">
				<title>Sheet.244</title>
				<desc>:Service caller</desc>
				<v:userDefs>
					<v:ud v:nameU="TabSize" v:val="VT0(0.125):0"/>
				</v:userDefs>
				<v:textBlock v:margins="rect(4,4,4,4)"/>
				<v:textRect cx="36" cy="577.276" width="72" height="36"/>
				<path d="M72 595.28 L72 559.28 L0 559.28 L0 595.28 L72 595.28 ZM0 595.28 L0 559.28 L0 595.28 ZM72 559.28 L72 595.28
							 L72 559.28 Z" class="st2"/>
				<path d="M72 595.28 L72 559.28" class="st3"/>
				<path d="M0 595.28 L0 559.28" class="st3"/>
				<path d="M0 559.28 L72 559.28" class="st3"/>
				<path d="M0 595.28 L72 595.28" class="st3"/>
				<text x="13.57" y="579.68" class="st4" v:langID="1033"><v:paragraph v:horizAlign="1"/><v:tabList/>:Service caller</text>			</g>
		</g>
		<g id="group245-24" transform="translate(108,-540)" v:mID="245" v:groupContext="group">
			<v:userDefs>
				<v:ud v:nameU="F" v:val="VT0(1):26"/>
				<v:ud v:nameU="Format" v:val="VT0(0):26"/>
				<v:ud v:nameU="ActiveObject" v:prompt="0,0626" v:val="VT0(0):26"/>
			</v:userDefs>
			<title>Part, Lifeline.245</title>
			<g id="shape246-25" v:mID="246" v:groupContext="shape" transform="translate(72,0)">
				<title>Sheet.246</title>
				<path d="M0 595.28 L0 559.28 L0 595.28 Z" class="st2"/>
			</g>
			<g id="shape247-28" v:mID="247" v:groupContext="shape">
				<title>Sheet.247</title>
				<path d="M72 595.28 L0 595.28 L72 595.28 Z" class="st2"/>
			</g>
			<g id="shape248-31" v:mID="248" v:groupContext="shape">
				<title>Sheet.248</title>
				<path d="M72 595.28 L0 595.28 L72 595.28 Z" class="st2"/>
			</g>
			<g id="shape249-34" v:mID="249" v:groupContext="shape">
				<title>Sheet.249</title>
				<path d="M72 595.28 L0 595.28 L72 595.28 Z" class="st2"/>
			</g>
			<g id="shape250-37" v:mID="250" v:groupContext="shape">
				<title>Sheet.250</title>
				<desc>:Monitored service</desc>
				<v:userDefs>
					<v:ud v:nameU="TabSize" v:val="VT0(0.125):0"/>
				</v:userDefs>
				<v:textBlock v:margins="rect(4,4,4,4)"/>
				<v:textRect cx="36" cy="577.276" width="72" height="36"/>
				<path d="M72 595.28 L72 559.28 L0 559.28 L0 595.28 L72 595.28 ZM0 595.28 L0 559.28 L0 595.28 ZM72 559.28 L72 595.28
							 L72 559.28 Z" class="st2"/>
				<path d="M72 595.28 L72 559.28" class="st3"/>
				<path d="M0 595.28 L0 559.28" class="st3"/>
				<path d="M0 559.28 L72 559.28" class="st3"/>
				<path d="M0 595.28 L72 595.28" class="st3"/>
				<text x="5.19" y="579.68" class="st4" v:langID="1033"><v:paragraph v:horizAlign="1"/><v:tabList/>:Monitored service</text>			</g>
		</g>
		<g id="group251-44" transform="translate(198,-540)" v:mID="251" v:groupContext="group">
			<v:userDefs>
				<v:ud v:nameU="F" v:val="VT0(1):26"/>
				<v:ud v:nameU="Format" v:val="VT0(0):26"/>
				<v:ud v:nameU="ActiveObject" v:prompt="0,0626" v:val="VT0(0):26"/>
			</v:userDefs>
			<title>Part, Lifeline.251</title>
			<g id="shape252-45" v:mID="252" v:groupContext="shape" transform="translate(72,0)">
				<title>Sheet.252</title>
				<path d="M0 595.28 L0 559.28 L0 595.28 Z" class="st2"/>
			</g>
			<g id="shape253-48" v:mID="253" v:groupContext="shape">
				<title>Sheet.253</title>
				<path d="M72 595.28 L0 595.28 L72 595.28 Z" class="st2"/>
			</g>
			<g id="shape254-51" v:mID="254" v:groupContext="shape">
				<title>Sheet.254</title>
				<path d="M72 595.28 L0 595.28 L72 595.28 Z" class="st2"/>
			</g>
			<g id="shape255-54" v:mID="255" v:groupContext="shape">
				<title>Sheet.255</title>
				<path d="M72 595.28 L0 595.28 L72 595.28 Z" class="st2"/>
			</g>
			<g id="shape256-57" v:mID="256" v:groupContext="shape">
				<title>Sheet.256</title>
				<desc>:HTTP pipeline handler</desc>
				<v:userDefs>
					<v:ud v:nameU="TabSize" v:val="VT0(0.125):0"/>
				</v:userDefs>
				<v:textBlock v:margins="rect(4,4,4,4)"/>
				<v:textRect cx="36" cy="577.276" width="72" height="36"/>
				<path d="M72 595.28 L72 559.28 L0 559.28 L0 595.28 L72 595.28 ZM0 595.28 L0 559.28 L0 595.28 ZM72 559.28 L72 595.28
							 L72 559.28 Z" class="st2"/>
				<path d="M72 595.28 L72 559.28" class="st3"/>
				<path d="M0 595.28 L0 559.28" class="st3"/>
				<path d="M0 559.28 L72 559.28" class="st3"/>
				<path d="M0 595.28 L72 595.28" class="st3"/>
				<text x="12.53" y="574.88" class="st4" v:langID="1033"><v:paragraph v:horizAlign="1"/><v:tabList/>:HTTP pipeline <tspan
							x="23.48" dy="1.2em" class="st5">handler</tspan></text>			</g>
		</g>
		<g id="group257-65" transform="translate(288,-540)" v:mID="257" v:groupContext="group">
			<v:userDefs>
				<v:ud v:nameU="F" v:val="VT0(1):26"/>
				<v:ud v:nameU="Format" v:val="VT0(0):26"/>
				<v:ud v:nameU="ActiveObject" v:prompt="0,0626" v:val="VT0(0):26"/>
			</v:userDefs>
			<title>Part, Lifeline.257</title>
			<g id="shape258-66" v:mID="258" v:groupContext="shape" transform="translate(72,0)">
				<title>Sheet.258</title>
				<path d="M0 595.28 L0 559.28 L0 595.28 Z" class="st2"/>
			</g>
			<g id="shape259-69" v:mID="259" v:groupContext="shape">
				<title>Sheet.259</title>
				<path d="M72 595.28 L0 595.28 L72 595.28 Z" class="st2"/>
			</g>
			<g id="shape260-72" v:mID="260" v:groupContext="shape">
				<title>Sheet.260</title>
				<path d="M72 595.28 L0 595.28 L72 595.28 Z" class="st2"/>
			</g>
			<g id="shape261-75" v:mID="261" v:groupContext="shape">
				<title>Sheet.261</title>
				<path d="M72 595.28 L0 595.28 L72 595.28 Z" class="st2"/>
			</g>
			<g id="shape262-78" v:mID="262" v:groupContext="shape">
				<title>Sheet.262</title>
				<desc>:HTTP client</desc>
				<v:userDefs>
					<v:ud v:nameU="TabSize" v:val="VT0(0.125):0"/>
				</v:userDefs>
				<v:textBlock v:margins="rect(4,4,4,4)"/>
				<v:textRect cx="36" cy="577.276" width="72" height="36"/>
				<path d="M72 595.28 L72 559.28 L0 559.28 L0 595.28 L72 595.28 ZM0 595.28 L0 559.28 L0 595.28 ZM72 559.28 L72 595.28
							 L72 559.28 Z" class="st2"/>
				<path d="M72 595.28 L72 559.28" class="st3"/>
				<path d="M0 595.28 L0 559.28" class="st3"/>
				<path d="M0 559.28 L72 559.28" class="st3"/>
				<path d="M0 595.28 L72 595.28" class="st3"/>
				<text x="16.61" y="579.68" class="st4" v:langID="1033"><v:paragraph v:horizAlign="1"/><v:tabList/>:HTTP client</text>			</g>
		</g>
		<g id="group263-85" transform="translate(378,-540)" v:mID="263" v:groupContext="group">
			<v:userDefs>
				<v:ud v:nameU="F" v:val="VT0(1):26"/>
				<v:ud v:nameU="Format" v:val="VT0(0):26"/>
				<v:ud v:nameU="ActiveObject" v:prompt="0,0626" v:val="VT0(0):26"/>
			</v:userDefs>
			<title>Part, Lifeline.263</title>
			<g id="shape264-86" v:mID="264" v:groupContext="shape" transform="translate(72,0)">
				<title>Sheet.264</title>
				<path d="M0 595.28 L0 559.28 L0 595.28 Z" class="st2"/>
			</g>
			<g id="shape265-89" v:mID="265" v:groupContext="shape">
				<title>Sheet.265</title>
				<path d="M72 595.28 L0 595.28 L72 595.28 Z" class="st2"/>
			</g>
			<g id="shape266-92" v:mID="266" v:groupContext="shape">
				<title>Sheet.266</title>
				<path d="M72 595.28 L0 595.28 L72 595.28 Z" class="st2"/>
			</g>
			<g id="shape267-95" v:mID="267" v:groupContext="shape">
				<title>Sheet.267</title>
				<path d="M72 595.28 L0 595.28 L72 595.28 Z" class="st2"/>
			</g>
			<g id="shape268-98" v:mID="268" v:groupContext="shape">
				<title>Sheet.268</title>
				<desc>:Logging library</desc>
				<v:userDefs>
					<v:ud v:nameU="TabSize" v:val="VT0(0.125):0"/>
				</v:userDefs>
				<v:textBlock v:margins="rect(4,4,4,4)"/>
				<v:textRect cx="36" cy="577.276" width="72" height="36"/>
				<path d="M72 595.28 L72 559.28 L0 559.28 L0 595.28 L72 595.28 ZM0 595.28 L0 559.28 L0 595.28 ZM72 559.28 L72 595.28
							 L72 559.28 Z" class="st2"/>
				<path d="M72 595.28 L72 559.28" class="st3"/>
				<path d="M0 595.28 L0 559.28" class="st3"/>
				<path d="M0 559.28 L72 559.28" class="st3"/>
				<path d="M0 595.28 L72 595.28" class="st3"/>
				<text x="11.11" y="579.68" class="st4" v:langID="1033"><v:paragraph v:horizAlign="1"/><v:tabList/>:Logging library</text>			</g>
		</g>
		<g id="group269-105" transform="translate(468,-540)" v:mID="269" v:groupContext="group">
			<v:userDefs>
				<v:ud v:nameU="F" v:val="VT0(1):26"/>
				<v:ud v:nameU="Format" v:val="VT0(0):26"/>
				<v:ud v:nameU="ActiveObject" v:prompt="0,0626" v:val="VT0(0):26"/>
			</v:userDefs>
			<title>Part, Lifeline.269</title>
			<g id="shape270-106" v:mID="270" v:groupContext="shape" transform="translate(72,0)">
				<title>Sheet.270</title>
				<path d="M0 595.28 L0 559.28 L0 595.28 Z" class="st2"/>
			</g>
			<g id="shape271-109" v:mID="271" v:groupContext="shape">
				<title>Sheet.271</title>
				<path d="M72 595.28 L0 595.28 L72 595.28 Z" class="st2"/>
			</g>
			<g id="shape272-112" v:mID="272" v:groupContext="shape">
				<title>Sheet.272</title>
				<path d="M72 595.28 L0 595.28 L72 595.28 Z" class="st2"/>
			</g>
			<g id="shape273-115" v:mID="273" v:groupContext="shape">
				<title>Sheet.273</title>
				<path d="M72 595.28 L0 595.28 L72 595.28 Z" class="st2"/>
			</g>
			<g id="shape274-118" v:mID="274" v:groupContext="shape">
				<title>Sheet.274</title>
				<desc>:Correlation info</desc>
				<v:userDefs>
					<v:ud v:nameU="TabSize" v:val="VT0(0.125):0"/>
				</v:userDefs>
				<v:textBlock v:margins="rect(4,4,4,4)"/>
				<v:textRect cx="36" cy="577.276" width="72" height="36"/>
				<path d="M72 595.28 L72 559.28 L0 559.28 L0 595.28 L72 595.28 ZM0 595.28 L0 559.28 L0 595.28 ZM72 559.28 L72 595.28
							 L72 559.28 Z" class="st2"/>
				<path d="M72 595.28 L72 559.28" class="st3"/>
				<path d="M0 595.28 L0 559.28" class="st3"/>
				<path d="M0 559.28 L72 559.28" class="st3"/>
				<path d="M0 595.28 L72 595.28" class="st3"/>
				<text x="9.35" y="579.68" class="st4" v:langID="1033"><v:paragraph v:horizAlign="1"/><v:tabList/>:Correlation info</text>			</g>
		</g>
		<g id="shape281-125" v:mID="281" v:groupContext="shape" transform="translate(144,650.551) scale(1,-1)">
			<title>Lifeline.281</title>
			<path d="M0 595.28 L0 388.28" class="st1"/>
		</g>
		<g id="shape282-128" v:mID="282" v:groupContext="shape" transform="translate(234,650.551) scale(1,-1)">
			<title>Lifeline.282</title>
			<path d="M0 595.28 L0 388.28" class="st1"/>
		</g>
		<g id="shape283-131" v:mID="283" v:groupContext="shape" transform="translate(324,650.551) scale(1,-1)">
			<title>Lifeline.283</title>
			<path d="M0 595.28 L0 388.28" class="st1"/>
		</g>
		<g id="shape284-134" v:mID="284" v:groupContext="shape" transform="translate(414,650.551) scale(1,-1)">
			<title>Lifeline.284</title>
			<path d="M0 595.28 L0 388.28" class="st1"/>
		</g>
		<g id="shape285-137" v:mID="285" v:groupContext="shape" transform="translate(504,650.551) scale(1,-1)">
			<title>Lifeline.285</title>
			<path d="M0 595.28 L0 388.28" class="st1"/>
		</g>
		<g id="shape287-140" v:mID="287" v:groupContext="shape" transform="translate(57.6,-513)">
			<title>Message (seq.diag)</title>
			<desc>&#60;&#60; service method &#62;&#62;</desc>
			<v:userDefs>
				<v:ud v:nameU="State" v:val="VT0(1):26"/>
				<v:ud v:nameU="LostFound" v:val="VT0(0):26"/>
			</v:userDefs>
			<v:textBlock v:margins="rect(4,4,4,4)"/>
			<v:textRect cx="41.4" cy="586.276" width="79.57" height="17.6036"/>
			<path d="M0 595.28 L77.28 595.28" class="st6"/>
			<rect v:rectContext="textBkgnd" x="5.61915" y="581.476" width="69.7497" height="9.59985" class="st8"/>
			<text x="5.62" y="588.68" class="st4" v:langID="1033"><v:paragraph/><v:tabList/>&#60;&#60; service method &#62;&#62;</text>		</g>
		<g id="shape303-148" v:mID="303" v:groupContext="shape" transform="translate(645.676,64.2756) rotate(90)">
			<title>Exec.Occurrence, Coregion</title>
			<path d="M0 595.28 L0 588.08 L175.5 588.08 L175.5 595.28 L0 595.28 Z" class="st9"/>
		</g>
		<g id="shape304-150" v:mID="304" v:groupContext="shape" transform="translate(735.676,82.2756) rotate(90)">
			<title>Exec.Occurrence, Coregion.304</title>
			<path d="M0 595.28 L0 588.08 L139.5 588.08 L139.5 595.28 L0 595.28 Z" class="st9"/>
		</g>
		<g id="shape307-152" v:mID="307" v:groupContext="shape" transform="translate(147.6,-495)">
			<title>Message (seq.diag).307</title>
			<desc>BeginRequest()</desc>
			<v:userDefs>
				<v:ud v:nameU="State" v:val="VT0(1):26"/>
				<v:ud v:nameU="LostFound" v:val="VT0(0):26"/>
			</v:userDefs>
			<v:textBlock v:margins="rect(4,4,4,4)"/>
			<v:textRect cx="41.4" cy="586.276" width="59.32" height="17.6036"/>
			<path d="M0 595.28 L77.28 595.28" class="st6"/>
			<rect v:rectContext="textBkgnd" x="15.7406" y="581.476" width="49.5069" height="9.59985" class="st8"/>
			<text x="15.74" y="588.68" class="st4" v:langID="1033"><v:paragraph/><v:tabList/>BeginRequest()</text>		</g>
		<g id="shape308-159" v:mID="308" v:groupContext="shape" transform="translate(825.676,100.276) rotate(90)">
			<title>Exec.Occurrence, Coregion.308</title>
			<path d="M0 595.28 L0 588.08 L103.5 588.08 L103.5 595.28 L0 595.28 Z" class="st9"/>
		</g>
		<g id="shape311-161" v:mID="311" v:groupContext="shape" transform="translate(1095.68,118.276) rotate(90)">
			<title>Exec.Occurrence, Coregion.311</title>
			<path d="M0 595.28 L0 588.08 L18 588.08 L18 595.28 L0 595.28 Z" class="st9"/>
		</g>
		<g id="shape312-163" v:mID="312" v:groupContext="shape" transform="translate(237.6,-477)">
			<title>Message (seq.diag).312</title>
			<desc>SetFromHeaders(headers)</desc>
			<v:userDefs>
				<v:ud v:nameU="State" v:val="VT0(1):26"/>
				<v:ud v:nameU="LostFound" v:val="VT0(0):26"/>
			</v:userDefs>
			<v:textBlock v:margins="rect(4,4,4,4)"/>
			<v:textRect cx="131.4" cy="586.276" width="95.09" height="17.6036"/>
			<path d="M0 595.28 L257.28 595.28" class="st6"/>
			<rect v:rectContext="textBkgnd" x="87.8558" y="581.476" width="85.2764" height="9.59985" class="st8"/>
			<text x="87.86" y="588.68" class="st4" v:langID="1033"><v:paragraph/><v:tabList/>SetFromHeaders(headers)</text>		</g>
		<g id="group567-170" transform="translate(558,-540)" v:mID="567" v:groupContext="group">
			<v:userDefs>
				<v:ud v:nameU="F" v:val="VT0(1):26"/>
				<v:ud v:nameU="Format" v:val="VT0(0):26"/>
				<v:ud v:nameU="ActiveObject" v:prompt="0,0626" v:val="VT0(0):26"/>
			</v:userDefs>
			<title>Part, Lifeline.567</title>
			<g id="shape568-171" v:mID="568" v:groupContext="shape" transform="translate(72,0)">
				<title>Sheet.568</title>
				<path d="M0 595.28 L0 559.28 L0 595.28 Z" class="st2"/>
			</g>
			<g id="shape569-174" v:mID="569" v:groupContext="shape">
				<title>Sheet.569</title>
				<path d="M72 595.28 L0 595.28 L72 595.28 Z" class="st2"/>
			</g>
			<g id="shape570-177" v:mID="570" v:groupContext="shape">
				<title>Sheet.570</title>
				<path d="M72 595.28 L0 595.28 L72 595.28 Z" class="st2"/>
			</g>
			<g id="shape571-180" v:mID="571" v:groupContext="shape">
				<title>Sheet.571</title>
				<path d="M72 595.28 L0 595.28 L72 595.28 Z" class="st2"/>
			</g>
			<g id="shape572-183" v:mID="572" v:groupContext="shape">
				<title>Sheet.572</title>
				<desc>:Message broker</desc>
				<v:userDefs>
					<v:ud v:nameU="TabSize" v:val="VT0(0.125):0"/>
				</v:userDefs>
				<v:textBlock v:margins="rect(4,4,4,4)"/>
				<v:textRect cx="36" cy="577.276" width="72" height="36"/>
				<path d="M72 595.28 L72 559.28 L0 559.28 L0 595.28 L72 595.28 ZM0 595.28 L0 559.28 L0 595.28 ZM72 559.28 L72 595.28
							 L72 559.28 Z" class="st2"/>
				<path d="M72 595.28 L72 559.28" class="st3"/>
				<path d="M0 595.28 L0 559.28" class="st3"/>
				<path d="M0 559.28 L72 559.28" class="st3"/>
				<path d="M0 595.28 L72 595.28" class="st3"/>
				<text x="8.89" y="579.68" class="st4" v:langID="1033"><v:paragraph v:horizAlign="1"/><v:tabList/>:Message broker</text>			</g>
		</g>
		<g id="shape573-190" v:mID="573" v:groupContext="shape" transform="translate(594,650.551) scale(1,-1)">
			<title>Lifeline.573</title>
			<path d="M0 595.28 L0 388.28" class="st1"/>
		</g>
		<g id="group340-193" transform="translate(234,-409.5)" v:mID="340" v:groupContext="group">
			<v:userDefs>
				<v:ud v:nameU="Row_1" v:val="VT0(0):26"/>
				<v:ud v:nameU="MoveText" v:val="VT0(0):26"/>
				<v:ud v:nameU="Row_3" v:val="VT0(0):26"/>
				<v:ud v:nameU="Row_4" v:val="VT0(0):26"/>
				<v:ud v:nameU="Row_5" v:val="VT0(0):26"/>
				<v:ud v:nameU="Row_6" v:val="VT0(0):26"/>
				<v:ud v:nameU="Row_7" v:val="VT0(0):26"/>
				<v:ud v:nameU="Row_8" v:val="VT0(0):26"/>
				<v:ud v:nameU="Row_9" v:val="VT0(0):26"/>
				<v:ud v:nameU="Row_10" v:val="VT0(0):26"/>
			</v:userDefs>
			<title>Interaction Use</title>
			<desc>Handle request</desc>
			<g id="shape341-194" v:mID="341" v:groupContext="shape" transform="translate(-9,0)">
				<title>Sheet.341</title>
				<v:userDefs>
					<v:ud v:nameU="HideText"/>
					<v:ud v:nameU="MoveText" v:val="VT0(0):26"/>
				</v:userDefs>
				<rect x="0" y="568.276" width="373.5" height="27" class="st10"/>
			</g>
			<g id="shape342-196" v:mID="342" v:groupContext="shape" transform="translate(-9,0)">
				<title>Sheet.342</title>
				<desc>[guard]</desc>
				<v:userDefs>
					<v:ud v:nameU="HideText" v:val="VT0(0):26"/>
					<v:ud v:nameU="MoveText" v:val="VT0(0):26"/>
					<v:ud v:nameU="HideLine" v:val="VT0(0):26"/>
				</v:userDefs>
				<v:textBlock v:margins="rect(4,4,4,4)"/>
				<v:textRect cx="70.46" cy="604.276" width="33.52" height="17.6036"/>
			</g>
			<g id="shape343-198" v:mID="343" v:groupContext="shape" transform="translate(-9,0)">
				<title>Sheet.343</title>
				<desc>[guard]</desc>
				<v:userDefs>
					<v:ud v:nameU="HideText" v:val="VT0(0):26"/>
					<v:ud v:nameU="MoveText" v:val="VT0(0):26"/>
					<v:ud v:nameU="HideLine" v:val="VT0(0):26"/>
				</v:userDefs>
				<v:textBlock v:margins="rect(4,4,4,4)"/>
				<v:textRect cx="186.75" cy="604.276" width="33.52" height="17.6036"/>
			</g>
			<g id="shape344-200" v:mID="344" v:groupContext="shape" transform="translate(-9,0)">
				<title>Sheet.344</title>
				<desc>[guard]</desc>
				<v:userDefs>
					<v:ud v:nameU="HideText" v:val="VT0(0):26"/>
					<v:ud v:nameU="MoveText" v:val="VT0(0):26"/>
					<v:ud v:nameU="HideLine" v:val="VT0(0):26"/>
				</v:userDefs>
				<v:textBlock v:margins="rect(4,4,4,4)"/>
				<v:textRect cx="186.75" cy="604.276" width="33.52" height="17.6036"/>
			</g>
			<g id="shape345-202" v:mID="345" v:groupContext="shape" transform="translate(-9,0)">
				<title>Sheet.345</title>
				<desc>[guard]</desc>
				<v:userDefs>
					<v:ud v:nameU="HideText" v:val="VT0(0):26"/>
					<v:ud v:nameU="MoveText" v:val="VT0(0):26"/>
					<v:ud v:nameU="HideLine" v:val="VT0(0):26"/>
				</v:userDefs>
				<v:textBlock v:margins="rect(4,4,4,4)"/>
				<v:textRect cx="186.75" cy="604.276" width="33.52" height="17.6036"/>
			</g>
			<g id="shape346-204" v:mID="346" v:groupContext="shape" transform="translate(-9,0)">
				<title>Sheet.346</title>
				<desc>[guard]</desc>
				<v:userDefs>
					<v:ud v:nameU="HideText" v:val="VT0(0):26"/>
					<v:ud v:nameU="MoveText" v:val="VT0(0):26"/>
					<v:ud v:nameU="HideLine" v:val="VT0(0):26"/>
				</v:userDefs>
				<v:textBlock v:margins="rect(4,4,4,4)"/>
				<v:textRect cx="186.75" cy="604.276" width="33.52" height="17.6036"/>
			</g>
			<g id="shape347-206" v:mID="347" v:groupContext="shape" transform="translate(-9,0)">
				<title>Sheet.347</title>
				<desc>[guard]</desc>
				<v:userDefs>
					<v:ud v:nameU="HideText" v:val="VT0(0):26"/>
					<v:ud v:nameU="MoveText" v:val="VT0(0):26"/>
					<v:ud v:nameU="HideLine" v:val="VT0(0):26"/>
				</v:userDefs>
				<v:textBlock v:margins="rect(4,4,4,4)"/>
				<v:textRect cx="186.75" cy="604.276" width="33.52" height="17.6036"/>
			</g>
			<g id="shape348-208" v:mID="348" v:groupContext="shape" transform="translate(-9,0)">
				<title>Sheet.348</title>
				<desc>[guard]</desc>
				<v:userDefs>
					<v:ud v:nameU="HideText" v:val="VT0(0):26"/>
					<v:ud v:nameU="MoveText" v:val="VT0(0):26"/>
					<v:ud v:nameU="HideLine" v:val="VT0(0):26"/>
				</v:userDefs>
				<v:textBlock v:margins="rect(4,4,4,4)"/>
				<v:textRect cx="186.75" cy="604.276" width="33.52" height="17.6036"/>
			</g>
			<g id="shape349-210" v:mID="349" v:groupContext="shape" transform="translate(-9,0)">
				<title>Sheet.349</title>
				<desc>[guard]</desc>
				<v:userDefs>
					<v:ud v:nameU="HideText" v:val="VT0(0):26"/>
					<v:ud v:nameU="MoveText" v:val="VT0(0):26"/>
					<v:ud v:nameU="HideLine" v:val="VT0(0):26"/>
				</v:userDefs>
				<v:textBlock v:margins="rect(4,4,4,4)"/>
				<v:textRect cx="186.75" cy="604.276" width="33.52" height="17.6036"/>
			</g>
			<g id="shape350-212" v:mID="350" v:groupContext="shape" transform="translate(-9,-9)">
				<title>Sheet.350</title>
				<desc>ref</desc>
				<v:userDefs>
					<v:ud v:nameU="Row_1" v:val="VT0(0):26"/>
					<v:ud v:nameU="Row_2" v:val="VT0(0):26"/>
					<v:ud v:nameU="Row_3" v:prompt="" v:val="VT0(0):26"/>
				</v:userDefs>
				<v:textBlock v:margins="rect(4,4,4,4)"/>
				<v:textRect cx="13.5" cy="586.276" width="19.22" height="18"/>
				<path d="M0 595.28 L18 595.28 L27 586.28 L27 577.28 L0 577.28 L0 595.28 Z" class="st10"/>
				<text x="8.8" y="588.68" class="st11" v:langID="1030"><v:paragraph v:horizAlign="1"/><v:tabList/>ref</text>			</g>
			<g id="shape340-215" v:mID="340" v:groupContext="groupContent">
				<v:textBlock v:margins="rect(4,4,4,4)"/>
				<v:textRect cx="62.5188" cy="581.776" width="59.63" height="17.6036"/>
				<rect v:rectContext="textBkgnd" x="37.6131" y="576.976" width="49.8117" height="9.59985" class="st12"/>
				<text x="37.61" y="584.18" class="st4" v:langID="1033"><v:paragraph v:horizAlign="1"/><v:tabList/>Handle request</text>			</g>
		</g>
	</g>
</svg>
