<?xml version="1.0" encoding="UTF-8" standalone="no"?>
<!DOCTYPE svg PUBLIC "-//W3C//DTD SVG 1.1//EN" "http://www.w3.org/Graphics/SVG/1.1/DTD/svg11.dtd">
<!-- Generated by Microsoft Visio, SVG Export diagram 04.svg Logstash sequence diagram -->
<svg xmlns="http://www.w3.org/2000/svg" xmlns:xlink="http://www.w3.org/1999/xlink" xmlns:ev="http://www.w3.org/2001/xml-events"
		xmlns:v="http://schemas.microsoft.com/visio/2003/SVGExtensions/" width="11.6929in" height="8.26772in"
		viewBox="0 0 841.89 595.276" xml:space="preserve" color-interpolation-filters="sRGB" class="st11">
	<v:documentProperties v:langID="1033" v:viewMarkup="false">
		<v:userDefs>
			<v:ud v:nameU="msvNoAutoConnect" v:val="VT0(1):26"/>
		</v:userDefs>
	</v:documentProperties>

	<style type="text/css">
	<![CDATA[
		.st1 {stroke:#000000;stroke-dasharray:3.6,2.16;stroke-linecap:round;stroke-linejoin:round;stroke-width:0.24}
		.st2 {fill:#ffffff}
		.st3 {stroke:#000000;stroke-linecap:round;stroke-linejoin:round;stroke-width:0.24}
		.st4 {fill:#000000;font-family:Calibri;font-size:0.666664em}
		.st5 {font-size:1em}
		.st6 {marker-end:url(#mrkr4-76);stroke:#000000;stroke-linecap:round;stroke-linejoin:round;stroke-width:0.24}
		.st7 {fill:#000000;fill-opacity:1;stroke:#000000;stroke-opacity:1;stroke-width:0.08695652173913}
		.st8 {fill:#ffffff;stroke:none;stroke-linecap:butt;stroke-width:7.2}
		.st9 {fill:#e6e6e6;stroke:#000000;stroke-linecap:round;stroke-linejoin:round;stroke-width:0.24}
		.st10 {marker-end:url(#mrkr12-88);stroke:#000000;stroke-dasharray:1.68,1.2;stroke-linecap:round;stroke-linejoin:round;stroke-width:0.24}
		.st11 {fill:none;fill-rule:evenodd;font-size:12px;overflow:visible;stroke-linecap:square;stroke-miterlimit:3}
	]]>
	</style>

	<defs id="Markers">
		<g id="lend4">
			<path d="M 2 1 L 0 0 L 2 -1 L 2 1 " style="stroke:none"/>
		</g>
		<marker id="mrkr4-76" class="st7" v:arrowType="4" v:arrowSize="2" v:setback="23" refX="-23" orient="auto"
				markerUnits="strokeWidth" overflow="visible">
			<use xlink:href="#lend4" transform="scale(-11.5,-11.5) "/>
		</marker>
		<g id="lend12">
			<path d="M 3 1 L 0 0 L 3 -1 " style="stroke-linecap:round;stroke-linejoin:round;fill:none"/>
		</g>
		<marker id="mrkr12-88" class="st7" v:arrowType="12" v:arrowSize="2" orient="auto" markerUnits="strokeWidth"
				overflow="visible">
			<use xlink:href="#lend12" transform="scale(-11.5,-11.5) "/>
		</marker>
	</defs>
	<g v:mID="9" v:index="4" v:groupContext="foregroundPage">
		<title>Logstash sequence diagram</title>
		<v:pageProperties v:drawingScale="1" v:pageScale="1" v:drawingUnits="19" v:shadowOffsetX="9" v:shadowOffsetY="-9"/>
		<g id="shape575-1" v:mID="575" v:groupContext="shape" transform="translate(144,650.551) scale(1,-1)">
			<title>Lifeline.575</title>
			<path d="M0 595.28 L0 329.78" class="st1"/>
		</g>
		<g id="group576-4" transform="translate(108,-540)" v:mID="576" v:groupContext="group">
			<v:userDefs>
				<v:ud v:nameU="F" v:val="VT0(1):26"/>
				<v:ud v:nameU="Format" v:val="VT0(0):26"/>
				<v:ud v:nameU="ActiveObject" v:prompt="0,0626" v:val="VT0(0):26"/>
			</v:userDefs>
			<title>Part, Lifeline.576</title>
			<g id="shape577-5" v:mID="577" v:groupContext="shape" transform="translate(72,0)">
				<title>Sheet.577</title>
				<path d="M0 595.28 L0 559.28 L0 595.28 Z" class="st2"/>
			</g>
			<g id="shape578-8" v:mID="578" v:groupContext="shape">
				<title>Sheet.578</title>
				<path d="M72 595.28 L0 595.28 L72 595.28 Z" class="st2"/>
			</g>
			<g id="shape579-11" v:mID="579" v:groupContext="shape">
				<title>Sheet.579</title>
				<path d="M72 595.28 L0 595.28 L72 595.28 Z" class="st2"/>
			</g>
			<g id="shape580-14" v:mID="580" v:groupContext="shape">
				<title>Sheet.580</title>
				<path d="M72 595.28 L0 595.28 L72 595.28 Z" class="st2"/>
			</g>
			<g id="shape581-17" v:mID="581" v:groupContext="shape">
				<title>Sheet.581</title>
				<desc>:Logstash input plugin</desc>
				<v:userDefs>
					<v:ud v:nameU="TabSize" v:val="VT0(0.125):0"/>
				</v:userDefs>
				<v:textBlock v:margins="rect(4,4,4,4)"/>
				<v:textRect cx="36" cy="577.276" width="72" height="36"/>
				<path d="M72 595.28 L72 559.28 L0 559.28 L0 595.28 L72 595.28 ZM0 595.28 L0 559.28 L0 595.28 ZM72 559.28 L72 595.28
							 L72 559.28 Z" class="st2"/>
				<path d="M72 595.28 L72 559.28" class="st3"/>
				<path d="M0 595.28 L0 559.28" class="st3"/>
				<path d="M0 559.28 L72 559.28" class="st3"/>
				<path d="M0 595.28 L72 595.28" class="st3"/>
				<text x="11.3" y="574.88" class="st4" v:langID="1033"><v:paragraph v:horizAlign="1"/><v:tabList/>:Logstash input <tspan
							x="25.98" dy="1.2em" class="st5">plugin</tspan></text>			</g>
		</g>
		<g id="group582-25" transform="translate(378,-540)" v:mID="582" v:groupContext="group">
			<v:userDefs>
				<v:ud v:nameU="F" v:val="VT0(1):26"/>
				<v:ud v:nameU="Format" v:val="VT0(0):26"/>
				<v:ud v:nameU="ActiveObject" v:prompt="0,0626" v:val="VT0(0):26"/>
			</v:userDefs>
			<title>Part, Lifeline.582</title>
			<g id="shape583-26" v:mID="583" v:groupContext="shape" transform="translate(72,0)">
				<title>Sheet.583</title>
				<path d="M0 595.28 L0 559.28 L0 595.28 Z" class="st2"/>
			</g>
			<g id="shape584-29" v:mID="584" v:groupContext="shape">
				<title>Sheet.584</title>
				<path d="M72 595.28 L0 595.28 L72 595.28 Z" class="st2"/>
			</g>
			<g id="shape585-32" v:mID="585" v:groupContext="shape">
				<title>Sheet.585</title>
				<path d="M72 595.28 L0 595.28 L72 595.28 Z" class="st2"/>
			</g>
			<g id="shape586-35" v:mID="586" v:groupContext="shape">
				<title>Sheet.586</title>
				<path d="M72 595.28 L0 595.28 L72 595.28 Z" class="st2"/>
			</g>
			<g id="shape587-38" v:mID="587" v:groupContext="shape">
				<title>Sheet.587</title>
				<desc>:Message broker</desc>
				<v:userDefs>
					<v:ud v:nameU="TabSize" v:val="VT0(0.125):0"/>
				</v:userDefs>
				<v:textBlock v:margins="rect(4,4,4,4)"/>
				<v:textRect cx="36" cy="577.276" width="72" height="36"/>
				<path d="M72 595.28 L72 559.28 L0 559.28 L0 595.28 L72 595.28 ZM0 595.28 L0 559.28 L0 595.28 ZM72 559.28 L72 595.28
							 L72 559.28 Z" class="st2"/>
				<path d="M72 595.28 L72 559.28" class="st3"/>
				<path d="M0 595.28 L0 559.28" class="st3"/>
				<path d="M0 559.28 L72 559.28" class="st3"/>
				<path d="M0 595.28 L72 595.28" class="st3"/>
				<text x="8.89" y="579.68" class="st4" v:langID="1033"><v:paragraph v:horizAlign="1"/><v:tabList/>:Message broker</text>			</g>
		</g>
		<g id="group588-45" transform="translate(468,-540)" v:mID="588" v:groupContext="group">
			<v:userDefs>
				<v:ud v:nameU="F" v:val="VT0(1):26"/>
				<v:ud v:nameU="Format" v:val="VT0(0):26"/>
				<v:ud v:nameU="ActiveObject" v:prompt="0,0626" v:val="VT0(0):26"/>
			</v:userDefs>
			<title>Part, Lifeline.588</title>
			<g id="shape589-46" v:mID="589" v:groupContext="shape" transform="translate(72,0)">
				<title>Sheet.589</title>
				<path d="M0 595.28 L0 559.28 L0 595.28 Z" class="st2"/>
			</g>
			<g id="shape590-49" v:mID="590" v:groupContext="shape">
				<title>Sheet.590</title>
				<path d="M72 595.28 L0 595.28 L72 595.28 Z" class="st2"/>
			</g>
			<g id="shape591-52" v:mID="591" v:groupContext="shape">
				<title>Sheet.591</title>
				<path d="M72 595.28 L0 595.28 L72 595.28 Z" class="st2"/>
			</g>
			<g id="shape592-55" v:mID="592" v:groupContext="shape">
				<title>Sheet.592</title>
				<path d="M72 595.28 L0 595.28 L72 595.28 Z" class="st2"/>
			</g>
			<g id="shape593-58" v:mID="593" v:groupContext="shape">
				<title>Sheet.593</title>
				<desc>:Elasticsearch</desc>
				<v:userDefs>
					<v:ud v:nameU="TabSize" v:val="VT0(0.125):0"/>
				</v:userDefs>
				<v:textBlock v:margins="rect(4,4,4,4)"/>
				<v:textRect cx="36" cy="577.276" width="72" height="36"/>
				<path d="M72 595.28 L72 559.28 L0 559.28 L0 595.28 L72 595.28 ZM0 595.28 L0 559.28 L0 595.28 ZM72 559.28 L72 595.28
							 L72 559.28 Z" class="st2"/>
				<path d="M72 595.28 L72 559.28" class="st3"/>
				<path d="M0 595.28 L0 559.28" class="st3"/>
				<path d="M0 559.28 L72 559.28" class="st3"/>
				<path d="M0 595.28 L72 595.28" class="st3"/>
				<text x="13.97" y="579.68" class="st4" v:langID="1033"><v:paragraph v:horizAlign="1"/><v:tabList/>:Elasticsearch</text>			</g>
		</g>
		<g id="shape612-65" v:mID="612" v:groupContext="shape" transform="translate(414,650.551) scale(1,-1)">
			<title>Lifeline.612</title>
			<path d="M0 595.28 L0 329.78" class="st1"/>
		</g>
		<g id="shape613-68" v:mID="613" v:groupContext="shape" transform="translate(504,650.551) scale(1,-1)">
			<title>Lifeline.613</title>
			<path d="M0 595.28 L0 329.78" class="st1"/>
		</g>
		<g id="shape617-71" v:mID="617" v:groupContext="shape" transform="translate(147.6,-495)">
			<title>Message (seq.diag).617</title>
			<desc>&#60;&#60; consume message &#62;&#62;</desc>
			<v:userDefs>
				<v:ud v:nameU="State" v:val="VT0(1):26"/>
				<v:ud v:nameU="LostFound" v:val="VT0(0):26"/>
			</v:userDefs>
			<v:textBlock v:margins="rect(4,4,4,4)"/>
			<v:textRect cx="131.4" cy="586.276" width="88.89" height="17.6036"/>
			<path d="M0 595.28 L257.28 595.28" class="st6"/>
			<rect v:rectContext="textBkgnd" x="90.9552" y="581.476" width="79.0777" height="9.59985" class="st8"/>
			<text x="90.96" y="588.68" class="st4" v:langID="1033"><v:paragraph/><v:tabList/>&#60;&#60; consume message &#62;&#62;</text>		</g>
		<g id="shape618-79" v:mID="618" v:groupContext="shape" transform="translate(735.676,82.2756) rotate(90)">
			<title>Exec.Occurrence, Coregion.618</title>
			<path d="M0 595.28 L0 588.08 L54 588.08 L54 595.28 L0 595.28 Z" class="st9"/>
		</g>
		<g id="shape643-81" v:mID="643" v:groupContext="shape" transform="translate(1005.68,100.276) rotate(90)">
			<title>Exec.Occurrence, Coregion.643</title>
			<path d="M0 595.28 L0 588.08 L18 588.08 L18 595.28 L0 595.28 Z" class="st9"/>
		</g>
		<g id="shape644-83" v:mID="644" v:groupContext="shape" transform="translate(410.4,713.551) rotate(180)">
			<title>Message (seq.diag).513</title>
			<v:userDefs>
				<v:ud v:nameU="State" v:val="VT0(1):26"/>
				<v:ud v:nameU="LostFound" v:val="VT0(0):26"/>
				<v:ud v:nameU="State" v:prompt="" v:val="VT0(5):26"/>
			</v:userDefs>
			<path d="M0 595.28 L262.8 595.28" class="st10"/>
		</g>
		<g id="group645-89" transform="translate(198,-540)" v:mID="645" v:groupContext="group">
			<v:userDefs>
				<v:ud v:nameU="F" v:val="VT0(1):26"/>
				<v:ud v:nameU="Format" v:val="VT0(0):26"/>
				<v:ud v:nameU="ActiveObject" v:prompt="0,0626" v:val="VT0(0):26"/>
			</v:userDefs>
			<title>Part, Lifeline.645</title>
			<g id="shape646-90" v:mID="646" v:groupContext="shape" transform="translate(72,0)">
				<title>Sheet.646</title>
				<path d="M0 595.28 L0 559.28 L0 595.28 Z" class="st2"/>
			</g>
			<g id="shape647-93" v:mID="647" v:groupContext="shape">
				<title>Sheet.647</title>
				<path d="M72 595.28 L0 595.28 L72 595.28 Z" class="st2"/>
			</g>
			<g id="shape648-96" v:mID="648" v:groupContext="shape">
				<title>Sheet.648</title>
				<path d="M72 595.28 L0 595.28 L72 595.28 Z" class="st2"/>
			</g>
			<g id="shape649-99" v:mID="649" v:groupContext="shape">
				<title>Sheet.649</title>
				<path d="M72 595.28 L0 595.28 L72 595.28 Z" class="st2"/>
			</g>
			<g id="shape650-102" v:mID="650" v:groupContext="shape">
				<title>Sheet.650</title>
				<desc>:Logstash filter plugin</desc>
				<v:userDefs>
					<v:ud v:nameU="TabSize" v:val="VT0(0.125):0"/>
				</v:userDefs>
				<v:textBlock v:margins="rect(4,4,4,4)"/>
				<v:textRect cx="36" cy="577.276" width="72" height="36"/>
				<path d="M72 595.28 L72 559.28 L0 559.28 L0 595.28 L72 595.28 ZM0 595.28 L0 559.28 L0 595.28 ZM72 559.28 L72 595.28
							 L72 559.28 Z" class="st2"/>
				<path d="M72 595.28 L72 559.28" class="st3"/>
				<path d="M0 595.28 L0 559.28" class="st3"/>
				<path d="M0 559.28 L72 559.28" class="st3"/>
				<path d="M0 595.28 L72 595.28" class="st3"/>
				<text x="12.08" y="574.88" class="st4" v:langID="1033"><v:paragraph v:horizAlign="1"/><v:tabList/>:Logstash filter <tspan
							x="25.98" dy="1.2em" class="st5">plugin</tspan></text>			</g>
		</g>
		<g id="shape651-110" v:mID="651" v:groupContext="shape" transform="translate(234,650.551) scale(1,-1)">
			<title>Lifeline.651</title>
			<path d="M0 595.28 L0 329.78" class="st1"/>
		</g>
		<g id="group652-113" transform="translate(288,-540)" v:mID="652" v:groupContext="group">
			<v:userDefs>
				<v:ud v:nameU="F" v:val="VT0(1):26"/>
				<v:ud v:nameU="Format" v:val="VT0(0):26"/>
				<v:ud v:nameU="ActiveObject" v:prompt="0,0626" v:val="VT0(0):26"/>
			</v:userDefs>
			<title>Part, Lifeline.652</title>
			<g id="shape653-114" v:mID="653" v:groupContext="shape" transform="translate(72,0)">
				<title>Sheet.653</title>
				<path d="M0 595.28 L0 559.28 L0 595.28 Z" class="st2"/>
			</g>
			<g id="shape654-117" v:mID="654" v:groupContext="shape">
				<title>Sheet.654</title>
				<path d="M72 595.28 L0 595.28 L72 595.28 Z" class="st2"/>
			</g>
			<g id="shape655-120" v:mID="655" v:groupContext="shape">
				<title>Sheet.655</title>
				<path d="M72 595.28 L0 595.28 L72 595.28 Z" class="st2"/>
			</g>
			<g id="shape656-123" v:mID="656" v:groupContext="shape">
				<title>Sheet.656</title>
				<path d="M72 595.28 L0 595.28 L72 595.28 Z" class="st2"/>
			</g>
			<g id="shape657-126" v:mID="657" v:groupContext="shape">
				<title>Sheet.657</title>
				<desc>:Logstash output plugin</desc>
				<v:userDefs>
					<v:ud v:nameU="TabSize" v:val="VT0(0.125):0"/>
				</v:userDefs>
				<v:textBlock v:margins="rect(4,4,4,4)"/>
				<v:textRect cx="36" cy="577.276" width="72" height="36"/>
				<path d="M72 595.28 L72 559.28 L0 559.28 L0 595.28 L72 595.28 ZM0 595.28 L0 559.28 L0 595.28 ZM72 559.28 L72 595.28
							 L72 559.28 Z" class="st2"/>
				<path d="M72 595.28 L72 559.28" class="st3"/>
				<path d="M0 595.28 L0 559.28" class="st3"/>
				<path d="M0 559.28 L72 559.28" class="st3"/>
				<path d="M0 595.28 L72 595.28" class="st3"/>
				<text x="8.77" y="574.88" class="st4" v:langID="1033"><v:paragraph v:horizAlign="1"/><v:tabList/>:Logstash output <tspan
							x="25.98" dy="1.2em" class="st5">plugin</tspan></text>			</g>
		</g>
		<g id="shape658-134" v:mID="658" v:groupContext="shape" transform="translate(324,650.551) scale(1,-1)">
			<title>Lifeline.658</title>
			<path d="M0 595.28 L0 329.78" class="st1"/>
		</g>
		<g id="shape659-137" v:mID="659" v:groupContext="shape" transform="translate(54,650.551) scale(1,-1)">
			<title>Lifeline.659</title>
			<path d="M0 595.28 L0 329.78" class="st1"/>
		</g>
		<g id="group660-140" transform="translate(18,-540)" v:mID="660" v:groupContext="group">
			<v:userDefs>
				<v:ud v:nameU="F" v:val="VT0(1):26"/>
				<v:ud v:nameU="Format" v:val="VT0(0):26"/>
				<v:ud v:nameU="ActiveObject" v:prompt="0,0626" v:val="VT0(0):26"/>
			</v:userDefs>
			<title>Part, Lifeline.660</title>
			<g id="shape661-141" v:mID="661" v:groupContext="shape" transform="translate(72,0)">
				<title>Sheet.661</title>
				<path d="M0 595.28 L0 559.28 L0 595.28 Z" class="st2"/>
			</g>
			<g id="shape662-144" v:mID="662" v:groupContext="shape">
				<title>Sheet.662</title>
				<path d="M72 595.28 L0 595.28 L72 595.28 Z" class="st2"/>
			</g>
			<g id="shape663-147" v:mID="663" v:groupContext="shape">
				<title>Sheet.663</title>
				<path d="M72 595.28 L0 595.28 L72 595.28 Z" class="st2"/>
			</g>
			<g id="shape664-150" v:mID="664" v:groupContext="shape">
				<title>Sheet.664</title>
				<path d="M72 595.28 L0 595.28 L72 595.28 Z" class="st2"/>
			</g>
			<g id="shape665-153" v:mID="665" v:groupContext="shape">
				<title>Sheet.665</title>
				<desc>:Logstash engine</desc>
				<v:userDefs>
					<v:ud v:nameU="TabSize" v:val="VT0(0.125):0"/>
				</v:userDefs>
				<v:textBlock v:margins="rect(4,4,4,4)"/>
				<v:textRect cx="36" cy="577.276" width="72" height="36"/>
				<path d="M72 595.28 L72 559.28 L0 559.28 L0 595.28 L72 595.28 ZM0 595.28 L0 559.28 L0 595.28 ZM72 559.28 L72 595.28
							 L72 559.28 Z" class="st2"/>
				<path d="M72 595.28 L72 559.28" class="st3"/>
				<path d="M0 595.28 L0 559.28" class="st3"/>
				<path d="M0 559.28 L72 559.28" class="st3"/>
				<path d="M0 595.28 L72 595.28" class="st3"/>
				<text x="8.88" y="579.68" class="st4" v:langID="1033"><v:paragraph v:horizAlign="1"/><v:tabList/>:Logstash engine</text>			</g>
		</g>
		<g id="shape666-160" v:mID="666" v:groupContext="shape" transform="translate(645.676,64.2756) rotate(90)">
			<title>Exec.Occurrence, Coregion.666</title>
			<path d="M0 595.28 L0 588.08 L234 588.08 L234 595.28 L0 595.28 Z" class="st9"/>
		</g>
		<g id="shape667-162" v:mID="667" v:groupContext="shape" transform="translate(57.6,-513)">
			<title>Message (seq.diag).667</title>
			<desc>&#60;&#60; read data &#62;&#62;</desc>
			<v:userDefs>
				<v:ud v:nameU="State" v:val="VT0(1):26"/>
				<v:ud v:nameU="LostFound" v:val="VT0(0):26"/>
			</v:userDefs>
			<v:textBlock v:margins="rect(4,4,4,4)"/>
			<v:textRect cx="41.4" cy="586.276" width="60.53" height="17.6036"/>
			<path d="M0 595.28 L77.28 595.28" class="st6"/>
			<rect v:rectContext="textBkgnd" x="15.1365" y="581.476" width="50.7151" height="9.59985" class="st8"/>
			<text x="15.14" y="588.68" class="st4" v:langID="1033"><v:paragraph/><v:tabList/>&#60;&#60; read data &#62;&#62;</text>		</g>
		<g id="shape670-169" v:mID="670" v:groupContext="shape" transform="translate(140.4,731.551) rotate(180)">
			<title>Message (seq.diag).670</title>
			<v:userDefs>
				<v:ud v:nameU="State" v:val="VT0(1):26"/>
				<v:ud v:nameU="LostFound" v:val="VT0(0):26"/>
				<v:ud v:nameU="State" v:prompt="" v:val="VT0(5):26"/>
			</v:userDefs>
			<path d="M0 595.28 L82.8 595.28" class="st10"/>
		</g>
		<g id="shape671-174" v:mID="671" v:groupContext="shape" transform="translate(57.6,-423)">
			<title>Message (seq.diag).671</title>
			<desc>&#60;&#60; transform data &#62;&#62;</desc>
			<v:userDefs>
				<v:ud v:nameU="State" v:val="VT0(1):26"/>
				<v:ud v:nameU="LostFound" v:val="VT0(0):26"/>
			</v:userDefs>
			<v:textBlock v:margins="rect(4,4,4,4)"/>
			<v:textRect cx="86.4" cy="586.276" width="78.2" height="17.6036"/>
			<path d="M0 595.28 L167.28 595.28" class="st6"/>
			<rect v:rectContext="textBkgnd" x="51.3025" y="581.476" width="68.383" height="9.59985" class="st8"/>
			<text x="51.3" y="588.68" class="st4" v:langID="1033"><v:paragraph/><v:tabList/>&#60;&#60; transform data &#62;&#62;</text>		</g>
		<g id="shape672-181" v:mID="672" v:groupContext="shape" transform="translate(825.676,172.276) rotate(90)">
			<title>Exec.Occurrence, Coregion.672</title>
			<path d="M0 595.28 L0 588.08 L18 588.08 L18 595.28 L0 595.28 Z" class="st9"/>
		</g>
		<g id="shape673-183" v:mID="673" v:groupContext="shape" transform="translate(230.4,785.551) rotate(180)">
			<title>Message (seq.diag).673</title>
			<v:userDefs>
				<v:ud v:nameU="State" v:val="VT0(1):26"/>
				<v:ud v:nameU="LostFound" v:val="VT0(0):26"/>
				<v:ud v:nameU="State" v:prompt="" v:val="VT0(5):26"/>
			</v:userDefs>
			<path d="M0 595.28 L172.8 595.28" class="st10"/>
		</g>
		<g id="shape674-188" v:mID="674" v:groupContext="shape" transform="translate(327.6,-351)">
			<title>Message (seq.diag).674</title>
			<desc>&#60;&#60; write document &#62;&#62;</desc>
			<v:userDefs>
				<v:ud v:nameU="State" v:val="VT0(1):26"/>
				<v:ud v:nameU="LostFound" v:val="VT0(0):26"/>
			</v:userDefs>
			<v:textBlock v:margins="rect(4,4,4,4)"/>
			<v:textRect cx="86.4" cy="586.276" width="81.45" height="17.6036"/>
			<path d="M0 595.28 L167.28 595.28" class="st6"/>
			<rect v:rectContext="textBkgnd" x="49.6798" y="581.476" width="71.6284" height="9.59985" class="st8"/>
			<text x="49.68" y="588.68" class="st4" v:langID="1033"><v:paragraph/><v:tabList/>&#60;&#60; write document &#62;&#62;</text>		</g>
		<g id="shape675-195" v:mID="675" v:groupContext="shape" transform="translate(915.676,226.276) rotate(90)">
			<title>Exec.Occurrence, Coregion.675</title>
			<path d="M0 595.28 L0 588.08 L54 588.08 L54 595.28 L0 595.28 Z" class="st9"/>
		</g>
		<g id="shape676-197" v:mID="676" v:groupContext="shape" transform="translate(1095.68,244.276) rotate(90)">
			<title>Exec.Occurrence, Coregion.676</title>
			<path d="M0 595.28 L0 588.08 L18 588.08 L18 595.28 L0 595.28 Z" class="st9"/>
		</g>
		<g id="shape677-199" v:mID="677" v:groupContext="shape" transform="translate(500.4,857.551) rotate(180)">
			<title>Message (seq.diag).677</title>
			<v:userDefs>
				<v:ud v:nameU="State" v:val="VT0(1):26"/>
				<v:ud v:nameU="LostFound" v:val="VT0(0):26"/>
				<v:ud v:nameU="State" v:prompt="" v:val="VT0(5):26"/>
			</v:userDefs>
			<path d="M0 595.28 L172.8 595.28" class="st10"/>
		</g>
		<g id="shape678-204" v:mID="678" v:groupContext="shape" transform="translate(57.6,-369)">
			<title>Message (seq.diag).678</title>
			<desc>&#60;&#60; write data &#62;&#62;</desc>
			<v:userDefs>
				<v:ud v:nameU="State" v:val="VT0(1):26"/>
				<v:ud v:nameU="LostFound" v:val="VT0(0):26"/>
			</v:userDefs>
			<v:textBlock v:margins="rect(4,4,4,4)"/>
			<v:textRect cx="131.4" cy="586.276" width="62.73" height="17.6036"/>
			<path d="M0 595.28 L257.28 595.28" class="st6"/>
			<rect v:rectContext="textBkgnd" x="104.037" y="581.476" width="52.914" height="9.59985" class="st8"/>
			<text x="104.04" y="588.68" class="st4" v:langID="1033"><v:paragraph/><v:tabList/>&#60;&#60; write data &#62;&#62;</text>		</g>
		<g id="shape679-211" v:mID="679" v:groupContext="shape" transform="translate(320.4,875.551) rotate(180)">
			<title>Message (seq.diag).679</title>
			<v:userDefs>
				<v:ud v:nameU="State" v:val="VT0(1):26"/>
				<v:ud v:nameU="LostFound" v:val="VT0(0):26"/>
				<v:ud v:nameU="State" v:prompt="" v:val="VT0(5):26"/>
			</v:userDefs>
			<path d="M0 595.28 L262.8 595.28" class="st10"/>
		</g>
	</g>
</svg>
