<?xml version="1.0" encoding="UTF-8" standalone="no"?>
<!DOCTYPE svg PUBLIC "-//W3C//DTD SVG 1.1//EN" "http://www.w3.org/Graphics/SVG/1.1/DTD/svg11.dtd">
<!-- Generated by Microsoft Visio, SVG Export diagram 04.svg Page-6 -->
<svg xmlns="http://www.w3.org/2000/svg" xmlns:xlink="http://www.w3.org/1999/xlink" xmlns:ev="http://www.w3.org/2001/xml-events"
		xmlns:v="http://schemas.microsoft.com/visio/2003/SVGExtensions/" width="11.6929in" height="8.26772in"
		viewBox="0 0 841.89 595.276" xml:space="preserve" color-interpolation-filters="sRGB" class="st15">
	<v:documentProperties v:langID="1033" v:viewMarkup="false">
		<v:userDefs>
			<v:ud v:nameU="msvNoAutoConnect" v:val="VT0(1):26"/>
		</v:userDefs>
	</v:documentProperties>

	<style type="text/css">
	<![CDATA[
		.st1 {stroke:#000000;stroke-dasharray:3.6,2.16;stroke-linecap:round;stroke-linejoin:round;stroke-width:0.24}
		.st2 {fill:#ffffff}
		.st3 {stroke:#000000;stroke-linecap:round;stroke-linejoin:round;stroke-width:0.24}
		.st4 {fill:#000000;font-family:Calibri;font-size:0.666664em}
		.st5 {fill:#e6e6e6;stroke:#000000;stroke-linecap:round;stroke-linejoin:round;stroke-width:0.24}
		.st6 {marker-end:url(#mrkr4-63);stroke:#000000;stroke-linecap:round;stroke-linejoin:round;stroke-width:0.24}
		.st7 {fill:#000000;fill-opacity:1;stroke:#000000;stroke-opacity:1;stroke-width:0.08695652173913}
		.st8 {fill:#ffffff;stroke:none;stroke-linecap:butt;stroke-width:7.2}
		.st9 {marker-end:url(#mrkr12-80);stroke:#000000;stroke-dasharray:1.68,1.2;stroke-linecap:round;stroke-linejoin:round;stroke-width:0.24}
		.st10 {marker-end:url(#mrkr12-80);stroke:#000000;stroke-linecap:round;stroke-linejoin:round;stroke-width:0.24}
		.st11 {fill:#ffffff;stroke:none;stroke-linecap:butt}
		.st12 {fill:#ffffff;visibility:hidden}
		.st13 {fill:#ffffff;stroke:#000000;stroke-linecap:round;stroke-linejoin:round;stroke-width:0.24}
		.st14 {fill:#000000;font-family:Calibri;font-size:0.666664em;font-weight:bold}
		.st15 {fill:none;fill-rule:evenodd;font-size:12px;overflow:visible;stroke-linecap:square;stroke-miterlimit:3}
	]]>
	</style>

	<defs id="Markers">
		<g id="lend4">
			<path d="M 2 1 L 0 0 L 2 -1 L 2 1 " style="stroke:none"/>
		</g>
		<marker id="mrkr4-63" class="st7" v:arrowType="4" v:arrowSize="2" v:setback="23" refX="-23" orient="auto"
				markerUnits="strokeWidth" overflow="visible">
			<use xlink:href="#lend4" transform="scale(-11.5,-11.5) "/>
		</marker>
		<g id="lend12">
			<path d="M 3 1 L 0 0 L 3 -1 " style="stroke-linecap:round;stroke-linejoin:round;fill:none"/>
		</g>
		<marker id="mrkr12-80" class="st7" v:arrowType="12" v:arrowSize="2" orient="auto" markerUnits="strokeWidth"
				overflow="visible">
			<use xlink:href="#lend12" transform="scale(-11.5,-11.5) "/>
		</marker>
	</defs>
	<g v:mID="13" v:index="4" v:groupContext="foregroundPage">
		<title>App sequence diagram 03</title>
		<v:pageProperties v:drawingScale="1" v:pageScale="1" v:drawingUnits="19" v:shadowOffsetX="9" v:shadowOffsetY="-9"/>
		<g id="shape599-1" v:mID="599" v:groupContext="shape" transform="translate(432,687.827) scale(1,-1)">
			<title>Lifeline.599</title>
			<path d="M0 595.28 L0 397.28" class="st1"/>
		</g>
		<g id="shape607-4" v:mID="607" v:groupContext="shape" transform="translate(342,687.827) scale(1,-1)">
			<title>Lifeline.607</title>
			<path d="M0 595.28 L0 397.28" class="st1"/>
		</g>
		<g id="shape608-7" v:mID="608" v:groupContext="shape" transform="translate(252,687.827) scale(1,-1)">
			<title>Lifeline.608</title>
			<path d="M0 595.28 L0 397.28" class="st1"/>
		</g>
		<g id="shape609-10" v:mID="609" v:groupContext="shape" transform="translate(162,687.827) scale(1,-1)">
			<title>Lifeline.609</title>
			<path d="M0 595.28 L0 397.28" class="st1"/>
		</g>
		<g id="shape610-13" v:mID="610" v:groupContext="shape" transform="translate(72,687.827) scale(1,-1)">
			<title>Lifeline.610</title>
			<path d="M0 595.28 L0 397.28" class="st1"/>
		</g>
		<g id="group453-16" transform="translate(126,-502.724)" v:mID="453" v:groupContext="group">
			<v:userDefs>
				<v:ud v:nameU="F" v:val="VT0(1):26"/>
				<v:ud v:nameU="Format" v:val="VT0(0):26"/>
				<v:ud v:nameU="ActiveObject" v:prompt="0,0626" v:val="VT0(0):26"/>
			</v:userDefs>
			<title>Part, Lifeline.453</title>
			<g id="shape454-17" v:mID="454" v:groupContext="shape" transform="translate(72,0)">
				<title>Sheet.454</title>
				<path d="M0 595.28 L0 559.28 L0 595.28 Z" class="st2"/>
			</g>
			<g id="shape455-20" v:mID="455" v:groupContext="shape">
				<title>Sheet.455</title>
				<path d="M72 595.28 L0 595.28 L72 595.28 Z" class="st2"/>
			</g>
			<g id="shape456-23" v:mID="456" v:groupContext="shape">
				<title>Sheet.456</title>
				<path d="M72 595.28 L0 595.28 L72 595.28 Z" class="st2"/>
			</g>
			<g id="shape457-26" v:mID="457" v:groupContext="shape">
				<title>Sheet.457</title>
				<path d="M72 595.28 L0 595.28 L72 595.28 Z" class="st2"/>
			</g>
			<g id="shape458-29" v:mID="458" v:groupContext="shape">
				<title>Sheet.458</title>
				<desc>:Logging library</desc>
				<v:userDefs>
					<v:ud v:nameU="TabSize" v:val="VT0(0.125):0"/>
				</v:userDefs>
				<v:textBlock v:margins="rect(4,4,4,4)"/>
				<v:textRect cx="36" cy="577.276" width="72" height="36"/>
				<path d="M72 595.28 L72 559.28 L0 559.28 L0 595.28 L72 595.28 ZM0 595.28 L0 559.28 L0 595.28 ZM72 559.28 L72 595.28
							 L72 559.28 Z" class="st2"/>
				<path d="M72 595.28 L72 559.28" class="st3"/>
				<path d="M0 595.28 L0 559.28" class="st3"/>
				<path d="M0 559.28 L72 559.28" class="st3"/>
				<path d="M0 595.28 L72 595.28" class="st3"/>
				<text x="11.11" y="579.68" class="st4" v:langID="1033"><v:paragraph v:horizAlign="1"/><v:tabList/>:Logging library</text>			</g>
		</g>
		<g id="group459-36" transform="translate(216,-502.724)" v:mID="459" v:groupContext="group">
			<v:userDefs>
				<v:ud v:nameU="F" v:val="VT0(1):26"/>
				<v:ud v:nameU="Format" v:val="VT0(0):26"/>
				<v:ud v:nameU="ActiveObject" v:prompt="0,0626" v:val="VT0(0):26"/>
			</v:userDefs>
			<title>Part, Lifeline.459</title>
			<g id="shape460-37" v:mID="460" v:groupContext="shape" transform="translate(72,0)">
				<title>Sheet.460</title>
				<path d="M0 595.28 L0 559.28 L0 595.28 Z" class="st2"/>
			</g>
			<g id="shape461-40" v:mID="461" v:groupContext="shape">
				<title>Sheet.461</title>
				<path d="M72 595.28 L0 595.28 L72 595.28 Z" class="st2"/>
			</g>
			<g id="shape462-43" v:mID="462" v:groupContext="shape">
				<title>Sheet.462</title>
				<path d="M72 595.28 L0 595.28 L72 595.28 Z" class="st2"/>
			</g>
			<g id="shape463-46" v:mID="463" v:groupContext="shape">
				<title>Sheet.463</title>
				<path d="M72 595.28 L0 595.28 L72 595.28 Z" class="st2"/>
			</g>
			<g id="shape464-49" v:mID="464" v:groupContext="shape">
				<title>Sheet.464</title>
				<desc>:Correlation info</desc>
				<v:userDefs>
					<v:ud v:nameU="TabSize" v:val="VT0(0.125):0"/>
				</v:userDefs>
				<v:textBlock v:margins="rect(4,4,4,4)"/>
				<v:textRect cx="36" cy="577.276" width="72" height="36"/>
				<path d="M72 595.28 L72 559.28 L0 559.28 L0 595.28 L72 595.28 ZM0 595.28 L0 559.28 L0 595.28 ZM72 559.28 L72 595.28
							 L72 559.28 Z" class="st2"/>
				<path d="M72 595.28 L72 559.28" class="st3"/>
				<path d="M0 595.28 L0 559.28" class="st3"/>
				<path d="M0 559.28 L72 559.28" class="st3"/>
				<path d="M0 595.28 L72 595.28" class="st3"/>
				<text x="9.35" y="579.68" class="st4" v:langID="1033"><v:paragraph v:horizAlign="1"/><v:tabList/>:Correlation info</text>			</g>
		</g>
		<g id="shape498-56" v:mID="498" v:groupContext="shape" transform="translate(753.676,119.551) rotate(90)">
			<title>Exec.Occurrence, Coregion.498</title>
			<path d="M0 595.28 L0 588.08 L135 588.08 L135 595.28 L0 595.28 Z" class="st5"/>
		</g>
		<g id="shape499-58" v:mID="499" v:groupContext="shape" transform="translate(75.6,-475.724)">
			<title>Message (seq.diag).499</title>
			<desc>&#60;&#60; log / trace &#62;&#62;</desc>
			<v:userDefs>
				<v:ud v:nameU="State" v:val="VT0(1):26"/>
				<v:ud v:nameU="LostFound" v:val="VT0(0):26"/>
			</v:userDefs>
			<v:textBlock v:margins="rect(4,4,4,4)"/>
			<v:textRect cx="41.4" cy="586.276" width="62.56" height="17.6036"/>
			<path d="M0 595.28 L77.28 595.28" class="st6"/>
			<rect v:rectContext="textBkgnd" x="14.1209" y="581.476" width="52.7462" height="9.59985" class="st8"/>
			<text x="14.12" y="588.68" class="st4" v:langID="1033"><v:paragraph/><v:tabList/>&#60;&#60; log / trace &#62;&#62;</text>		</g>
		<g id="shape511-66" v:mID="511" v:groupContext="shape" transform="translate(165.6,-457.724)">
			<title>Message (seq.diag).511</title>
			<desc>Get()</desc>
			<v:userDefs>
				<v:ud v:nameU="State" v:val="VT0(1):26"/>
				<v:ud v:nameU="LostFound" v:val="VT0(0):26"/>
			</v:userDefs>
			<v:textBlock v:margins="rect(4,4,4,4)"/>
			<v:textRect cx="41.4" cy="586.276" width="26.38" height="17.6036"/>
			<path d="M0 595.28 L77.28 595.28" class="st6"/>
			<rect v:rectContext="textBkgnd" x="32.2149" y="581.476" width="16.5583" height="9.59985" class="st8"/>
			<text x="32.21" y="588.68" class="st4" v:langID="1033"><v:paragraph/><v:tabList/>Get()</text>		</g>
		<g id="shape512-73" v:mID="512" v:groupContext="shape" transform="translate(843.676,137.551) rotate(90)">
			<title>Exec.Occurrence, Coregion.512</title>
			<path d="M0 595.28 L0 588.08 L13.5 588.08 L13.5 595.28 L0 595.28 Z" class="st5"/>
		</g>
		<g id="shape513-75" v:mID="513" v:groupContext="shape" transform="translate(248.4,746.327) rotate(180)">
			<title>Message (seq.diag).513</title>
			<v:userDefs>
				<v:ud v:nameU="State" v:val="VT0(1):26"/>
				<v:ud v:nameU="LostFound" v:val="VT0(0):26"/>
				<v:ud v:nameU="State" v:prompt="" v:val="VT0(5):26"/>
			</v:userDefs>
			<path d="M0 595.28 L82.8 595.28" class="st9"/>
		</g>
		<g id="group514-81" transform="translate(306,-502.724)" v:mID="514" v:groupContext="group">
			<v:userDefs>
				<v:ud v:nameU="F" v:val="VT0(1):26"/>
				<v:ud v:nameU="Format" v:val="VT0(0):26"/>
				<v:ud v:nameU="ActiveObject" v:prompt="0,0626" v:val="VT0(0):26"/>
			</v:userDefs>
			<title>Part, Lifeline.514</title>
			<g id="shape515-82" v:mID="515" v:groupContext="shape" transform="translate(72,0)">
				<title>Sheet.515</title>
				<path d="M0 595.28 L0 559.28 L0 595.28 Z" class="st2"/>
			</g>
			<g id="shape516-85" v:mID="516" v:groupContext="shape">
				<title>Sheet.516</title>
				<path d="M72 595.28 L0 595.28 L72 595.28 Z" class="st2"/>
			</g>
			<g id="shape517-88" v:mID="517" v:groupContext="shape">
				<title>Sheet.517</title>
				<path d="M72 595.28 L0 595.28 L72 595.28 Z" class="st2"/>
			</g>
			<g id="shape518-91" v:mID="518" v:groupContext="shape">
				<title>Sheet.518</title>
				<path d="M72 595.28 L0 595.28 L72 595.28 Z" class="st2"/>
			</g>
			<g id="shape519-94" v:mID="519" v:groupContext="shape">
				<title>Sheet.519</title>
				<desc>:UDP / TCP agent</desc>
				<v:userDefs>
					<v:ud v:nameU="TabSize" v:val="VT0(0.125):0"/>
				</v:userDefs>
				<v:textBlock v:margins="rect(4,4,4,4)"/>
				<v:textRect cx="36" cy="577.276" width="72" height="36"/>
				<path d="M72 595.28 L72 559.28 L0 559.28 L0 595.28 L72 595.28 ZM0 595.28 L0 559.28 L0 595.28 ZM72 559.28 L72 595.28
							 L72 559.28 Z" class="st2"/>
				<path d="M72 595.28 L72 559.28" class="st3"/>
				<path d="M0 595.28 L0 559.28" class="st3"/>
				<path d="M0 559.28 L72 559.28" class="st3"/>
				<path d="M0 595.28 L72 595.28" class="st3"/>
				<text x="8.2" y="579.68" class="st4" v:langID="1033"><v:paragraph v:horizAlign="1"/><v:tabList/>:UDP / TCP agent</text>			</g>
		</g>
		<g id="shape523-101" v:mID="523" v:groupContext="shape" transform="translate(165.6,-408.224)">
			<title>Message (seq.diag).523</title>
			<desc>&#60;&#60; send enriched message &#62;&#62;</desc>
			<v:userDefs>
				<v:ud v:nameU="State" v:val="VT0(1):26"/>
				<v:ud v:nameU="LostFound" v:val="VT0(0):26"/>
			</v:userDefs>
			<v:textBlock v:margins="rect(4,4,4,4)"/>
			<v:textRect cx="86.4" cy="586.276" width="105.29" height="17.6036"/>
			<path d="M0 595.28 L172.8 595.28" class="st10"/>
			<rect v:rectContext="textBkgnd" x="37.758" y="581.476" width="95.472" height="9.59985" class="st11"/>
			<text x="37.76" y="588.68" class="st4" v:langID="1033"><v:paragraph/><v:tabList/>&#60;&#60; send enriched message &#62;&#62;</text>		</g>
		<g id="shape524-108" v:mID="524" v:groupContext="shape" transform="translate(933.676,187.051) rotate(90)">
			<title>Exec.Occurrence, Coregion.524</title>
			<path d="M0 595.28 L0 588.08 L49.5 588.08 L49.5 595.28 L0 595.28 Z" class="st5"/>
		</g>
		<g id="group561-110" transform="translate(36,-502.724)" v:mID="561" v:groupContext="group">
			<v:userDefs>
				<v:ud v:nameU="F" v:val="VT0(1):26"/>
				<v:ud v:nameU="Format" v:val="VT0(0):26"/>
				<v:ud v:nameU="ActiveObject" v:prompt="0,0626" v:val="VT0(0):26"/>
			</v:userDefs>
			<title>Part, Lifeline.561</title>
			<g id="shape562-111" v:mID="562" v:groupContext="shape" transform="translate(72,0)">
				<title>Sheet.562</title>
				<path d="M0 595.28 L0 559.28 L0 595.28 Z" class="st2"/>
			</g>
			<g id="shape563-114" v:mID="563" v:groupContext="shape">
				<title>Sheet.563</title>
				<path d="M72 595.28 L0 595.28 L72 595.28 Z" class="st2"/>
			</g>
			<g id="shape564-117" v:mID="564" v:groupContext="shape">
				<title>Sheet.564</title>
				<path d="M72 595.28 L0 595.28 L72 595.28 Z" class="st2"/>
			</g>
			<g id="shape565-120" v:mID="565" v:groupContext="shape">
				<title>Sheet.565</title>
				<path d="M72 595.28 L0 595.28 L72 595.28 Z" class="st2"/>
			</g>
			<g id="shape566-123" v:mID="566" v:groupContext="shape">
				<title>Sheet.566</title>
				<desc>:Caller</desc>
				<v:userDefs>
					<v:ud v:nameU="TabSize" v:val="VT0(0.125):0"/>
				</v:userDefs>
				<v:textBlock v:margins="rect(4,4,4,4)"/>
				<v:textRect cx="36" cy="577.276" width="72" height="36"/>
				<path d="M72 595.28 L72 559.28 L0 559.28 L0 595.28 L72 595.28 ZM0 595.28 L0 559.28 L0 595.28 ZM72 559.28 L72 595.28
							 L72 559.28 Z" class="st2"/>
				<path d="M72 595.28 L72 559.28" class="st3"/>
				<path d="M0 595.28 L0 559.28" class="st3"/>
				<path d="M0 559.28 L72 559.28" class="st3"/>
				<path d="M0 595.28 L72 595.28" class="st3"/>
				<text x="25.66" y="579.68" class="st4" v:langID="1033"><v:paragraph v:horizAlign="1"/><v:tabList/>:Caller</text>			</g>
		</g>
		<g id="group582-130" transform="translate(18.12,-268.724)" v:mID="582" v:groupContext="group">
			<v:userDefs>
				<v:ud v:nameU="Row_1" v:val="VT0(0):26"/>
				<v:ud v:nameU="MoveText" v:val="VT0(0):26"/>
				<v:ud v:nameU="Row_3" v:val="VT0(0):26"/>
				<v:ud v:nameU="Row_4" v:val="VT0(0):26"/>
				<v:ud v:nameU="Row_5" v:val="VT0(0):26"/>
				<v:ud v:nameU="Row_6" v:val="VT0(0):26"/>
				<v:ud v:nameU="Row_7" v:val="VT0(0):26"/>
				<v:ud v:nameU="Row_8" v:val="VT0(0):26"/>
				<v:ud v:nameU="Row_9" v:val="VT0(0):26"/>
				<v:ud v:nameU="Row_10" v:val="VT0(0):26"/>
			</v:userDefs>
			<title>Diagram, Frame.582</title>
			<g id="shape583-131" v:mID="583" v:groupContext="shape">
				<title>Sheet.583</title>
				<v:userDefs>
					<v:ud v:nameU="HideText"/>
					<v:ud v:nameU="MoveText" v:val="VT0(0):26"/>
				</v:userDefs>
				<rect x="0" y="289.276" width="467.88" height="306" class="st12"/>
				<rect x="0" y="289.276" width="467.88" height="306" class="st3"/>
			</g>
			<g id="shape584-134" v:mID="584" v:groupContext="shape">
				<title>Sheet.584</title>
				<desc>[guard]</desc>
				<v:userDefs>
					<v:ud v:nameU="HideText" v:val="VT0(0):26"/>
					<v:ud v:nameU="MoveText" v:val="VT0(0):26"/>
					<v:ud v:nameU="HideLine" v:val="VT0(0):26"/>
				</v:userDefs>
				<v:textBlock v:margins="rect(4,4,4,4)"/>
				<v:textRect cx="53.76" cy="604.276" width="33.52" height="17.6036"/>
			</g>
			<g id="shape585-136" v:mID="585" v:groupContext="shape">
				<title>Sheet.585</title>
				<desc>[guard]</desc>
				<v:userDefs>
					<v:ud v:nameU="HideText" v:val="VT0(0):26"/>
					<v:ud v:nameU="MoveText" v:val="VT0(0):26"/>
					<v:ud v:nameU="HideLine" v:val="VT0(0):26"/>
				</v:userDefs>
				<v:textBlock v:margins="rect(4,4,4,4)"/>
				<v:textRect cx="233.94" cy="604.276" width="33.52" height="17.6036"/>
			</g>
			<g id="shape586-138" v:mID="586" v:groupContext="shape">
				<title>Sheet.586</title>
				<desc>[guard]</desc>
				<v:userDefs>
					<v:ud v:nameU="HideText" v:val="VT0(0):26"/>
					<v:ud v:nameU="MoveText" v:val="VT0(0):26"/>
					<v:ud v:nameU="HideLine" v:val="VT0(0):26"/>
				</v:userDefs>
				<v:textBlock v:margins="rect(4,4,4,4)"/>
				<v:textRect cx="233.94" cy="604.276" width="33.52" height="17.6036"/>
			</g>
			<g id="shape587-140" v:mID="587" v:groupContext="shape">
				<title>Sheet.587</title>
				<desc>[guard]</desc>
				<v:userDefs>
					<v:ud v:nameU="HideText" v:val="VT0(0):26"/>
					<v:ud v:nameU="MoveText" v:val="VT0(0):26"/>
					<v:ud v:nameU="HideLine" v:val="VT0(0):26"/>
				</v:userDefs>
				<v:textBlock v:margins="rect(4,4,4,4)"/>
				<v:textRect cx="233.94" cy="604.276" width="33.52" height="17.6036"/>
			</g>
			<g id="shape588-142" v:mID="588" v:groupContext="shape">
				<title>Sheet.588</title>
				<desc>[guard]</desc>
				<v:userDefs>
					<v:ud v:nameU="HideText" v:val="VT0(0):26"/>
					<v:ud v:nameU="MoveText" v:val="VT0(0):26"/>
					<v:ud v:nameU="HideLine" v:val="VT0(0):26"/>
				</v:userDefs>
				<v:textBlock v:margins="rect(4,4,4,4)"/>
				<v:textRect cx="233.94" cy="604.276" width="33.52" height="17.6036"/>
			</g>
			<g id="shape589-144" v:mID="589" v:groupContext="shape">
				<title>Sheet.589</title>
				<desc>[guard]</desc>
				<v:userDefs>
					<v:ud v:nameU="HideText" v:val="VT0(0):26"/>
					<v:ud v:nameU="MoveText" v:val="VT0(0):26"/>
					<v:ud v:nameU="HideLine" v:val="VT0(0):26"/>
				</v:userDefs>
				<v:textBlock v:margins="rect(4,4,4,4)"/>
				<v:textRect cx="233.94" cy="604.276" width="33.52" height="17.6036"/>
			</g>
			<g id="shape590-146" v:mID="590" v:groupContext="shape">
				<title>Sheet.590</title>
				<desc>[guard]</desc>
				<v:userDefs>
					<v:ud v:nameU="HideText" v:val="VT0(0):26"/>
					<v:ud v:nameU="MoveText" v:val="VT0(0):26"/>
					<v:ud v:nameU="HideLine" v:val="VT0(0):26"/>
				</v:userDefs>
				<v:textBlock v:margins="rect(4,4,4,4)"/>
				<v:textRect cx="233.94" cy="604.276" width="33.52" height="17.6036"/>
			</g>
			<g id="shape591-148" v:mID="591" v:groupContext="shape">
				<title>Sheet.591</title>
				<desc>[guard]</desc>
				<v:userDefs>
					<v:ud v:nameU="HideText" v:val="VT0(0):26"/>
					<v:ud v:nameU="MoveText" v:val="VT0(0):26"/>
					<v:ud v:nameU="HideLine" v:val="VT0(0):26"/>
				</v:userDefs>
				<v:textBlock v:margins="rect(4,4,4,4)"/>
				<v:textRect cx="233.94" cy="604.276" width="33.52" height="17.6036"/>
			</g>
			<g id="shape592-150" v:mID="592" v:groupContext="shape" transform="translate(0,-288)">
				<title>Sheet.592</title>
				<desc>sd Log / Trace</desc>
				<v:userDefs>
					<v:ud v:nameU="Row_1" v:val="VT0(0):26"/>
					<v:ud v:nameU="Row_2" v:val="VT0(0):26"/>
				</v:userDefs>
				<v:textBlock v:margins="rect(4,4,4,4)"/>
				<v:textRect cx="45" cy="586.276" width="55.77" height="18"/>
				<path d="M0 595.28 L81 595.28 L90 586.28 L90 577.28 L0 577.28 L0 595.28 Z" class="st13"/>
				<text x="22.02" y="588.68" class="st14" v:langID="1033"><v:paragraph v:horizAlign="1"/><v:tabList/>sd Log / Trace</text>			</g>
		</g>
		<g id="shape593-153" v:mID="593" v:groupContext="shape" transform="translate(663.676,101.551) rotate(90)">
			<title>Exec.Occurrence, Coregion.593</title>
			<path d="M0 595.28 L0 588.08 L171 588.08 L171 595.28 L0 595.28 Z" class="st5"/>
		</g>
		<g id="group600-155" transform="translate(396,-502.724)" v:mID="600" v:groupContext="group">
			<v:userDefs>
				<v:ud v:nameU="F" v:val="VT0(1):26"/>
				<v:ud v:nameU="Format" v:val="VT0(0):26"/>
				<v:ud v:nameU="ActiveObject" v:prompt="0,0626" v:val="VT0(0):26"/>
			</v:userDefs>
			<title>Part, Lifeline.600</title>
			<g id="shape601-156" v:mID="601" v:groupContext="shape" transform="translate(72,0)">
				<title>Sheet.601</title>
				<path d="M0 595.28 L0 559.28 L0 595.28 Z" class="st2"/>
			</g>
			<g id="shape602-159" v:mID="602" v:groupContext="shape">
				<title>Sheet.602</title>
				<path d="M72 595.28 L0 595.28 L72 595.28 Z" class="st2"/>
			</g>
			<g id="shape603-162" v:mID="603" v:groupContext="shape">
				<title>Sheet.603</title>
				<path d="M72 595.28 L0 595.28 L72 595.28 Z" class="st2"/>
			</g>
			<g id="shape604-165" v:mID="604" v:groupContext="shape">
				<title>Sheet.604</title>
				<path d="M72 595.28 L0 595.28 L72 595.28 Z" class="st2"/>
			</g>
			<g id="shape605-168" v:mID="605" v:groupContext="shape">
				<title>Sheet.605</title>
				<desc>:Message broker</desc>
				<v:userDefs>
					<v:ud v:nameU="TabSize" v:val="VT0(0.125):0"/>
				</v:userDefs>
				<v:textBlock v:margins="rect(4,4,4,4)"/>
				<v:textRect cx="36" cy="577.276" width="72" height="36"/>
				<path d="M72 595.28 L72 559.28 L0 559.28 L0 595.28 L72 595.28 ZM0 595.28 L0 559.28 L0 595.28 ZM72 559.28 L72 595.28
							 L72 559.28 Z" class="st2"/>
				<path d="M72 595.28 L72 559.28" class="st3"/>
				<path d="M0 595.28 L0 559.28" class="st3"/>
				<path d="M0 559.28 L72 559.28" class="st3"/>
				<path d="M0 595.28 L72 595.28" class="st3"/>
				<text x="8.89" y="579.68" class="st4" v:langID="1033"><v:paragraph v:horizAlign="1"/><v:tabList/>:Message broker</text>			</g>
		</g>
		<g id="shape606-175" v:mID="606" v:groupContext="shape" transform="translate(1023.68,205.051) rotate(90)">
			<title>Exec.Occurrence, Coregion.606</title>
			<path d="M0 595.28 L0 588.08 L13.5 588.08 L13.5 595.28 L0 595.28 Z" class="st5"/>
		</g>
		<g id="shape611-177" v:mID="611" v:groupContext="shape" transform="translate(345.6,-390.224)">
			<title>Message (seq.diag).611</title>
			<desc>&#60;&#60; publish message &#62;&#62;</desc>
			<v:userDefs>
				<v:ud v:nameU="State" v:val="VT0(1):26"/>
				<v:ud v:nameU="LostFound" v:val="VT0(0):26"/>
			</v:userDefs>
			<v:textBlock v:margins="rect(4,4,4,4)"/>
			<v:textRect cx="41.4" cy="586.276" width="83" height="17.6036"/>
			<path d="M0 595.28 L82.8 595.28" class="st10"/>
			<rect v:rectContext="textBkgnd" x="3.9024" y="581.476" width="73.1832" height="9.59985" class="st8"/>
			<text x="3.9" y="588.68" class="st4" v:langID="1033"><v:paragraph/><v:tabList/>&#60;&#60; publish message &#62;&#62;</text>		</g>
	</g>
</svg>
