<?xml version="1.0" encoding="UTF-8" standalone="no"?>
<!DOCTYPE svg PUBLIC "-//W3C//DTD SVG 1.1//EN" "http://www.w3.org/Graphics/SVG/1.1/DTD/svg11.dtd">
<!-- Generated by Microsoft Visio, SVG Export diagram 06.svg Kibana sequence diagram -->
<svg xmlns="http://www.w3.org/2000/svg" xmlns:xlink="http://www.w3.org/1999/xlink" xmlns:ev="http://www.w3.org/2001/xml-events"
		xmlns:v="http://schemas.microsoft.com/visio/2003/SVGExtensions/" width="11.6929in" height="8.26772in"
		viewBox="0 0 841.89 595.276" xml:space="preserve" color-interpolation-filters="sRGB" class="st11">
	<v:documentProperties v:langID="1033" v:viewMarkup="false">
		<v:userDefs>
			<v:ud v:nameU="msvNoAutoConnect" v:val="VT0(1):26"/>
		</v:userDefs>
	</v:documentProperties>

	<style type="text/css">
	<![CDATA[
		.st1 {fill:#ffffff}
		.st2 {stroke:#000000;stroke-linecap:round;stroke-linejoin:round;stroke-width:0.24}
		.st3 {fill:#000000;font-family:Calibri;font-size:0.666664em}
		.st4 {stroke:#000000;stroke-dasharray:3.6,2.16;stroke-linecap:round;stroke-linejoin:round;stroke-width:0.24}
		.st5 {fill:#e6e6e6;stroke:#000000;stroke-linecap:round;stroke-linejoin:round;stroke-width:0.24}
		.st6 {marker-end:url(#mrkr4-77);stroke:#000000;stroke-linecap:round;stroke-linejoin:round;stroke-width:0.24}
		.st7 {fill:#000000;fill-opacity:1;stroke:#000000;stroke-opacity:1;stroke-width:0.08695652173913}
		.st8 {fill:#ffffff;stroke:none;stroke-linecap:butt}
		.st9 {marker-end:url(#mrkr12-89);stroke:#000000;stroke-dasharray:1.68,1.2;stroke-linecap:round;stroke-linejoin:round;stroke-width:0.24}
		.st10 {fill:#ffffff;stroke:none;stroke-linecap:butt;stroke-width:7.2}
		.st11 {fill:none;fill-rule:evenodd;font-size:12px;overflow:visible;stroke-linecap:square;stroke-miterlimit:3}
	]]>
	</style>

	<defs id="Markers">
		<g id="lend4">
			<path d="M 2 1 L 0 0 L 2 -1 L 2 1 " style="stroke:none"/>
		</g>
		<marker id="mrkr4-77" class="st7" v:arrowType="4" v:arrowSize="2" v:setback="23" refX="-23" orient="auto"
				markerUnits="strokeWidth" overflow="visible">
			<use xlink:href="#lend4" transform="scale(-11.5,-11.5) "/>
		</marker>
		<g id="lend12">
			<path d="M 3 1 L 0 0 L 3 -1 " style="stroke-linecap:round;stroke-linejoin:round;fill:none"/>
		</g>
		<marker id="mrkr12-89" class="st7" v:arrowType="12" v:arrowSize="2" orient="auto" markerUnits="strokeWidth"
				overflow="visible">
			<use xlink:href="#lend12" transform="scale(-11.5,-11.5) "/>
		</marker>
	</defs>
	<g v:mID="10" v:index="6" v:groupContext="foregroundPage">
		<title>Kibana sequence diagram</title>
		<v:pageProperties v:drawingScale="1" v:pageScale="1" v:drawingUnits="19" v:shadowOffsetX="9" v:shadowOffsetY="-9"/>
		<g id="group594-1" transform="translate(18,-540)" v:mID="594" v:groupContext="group">
			<v:userDefs>
				<v:ud v:nameU="F" v:val="VT0(1):26"/>
				<v:ud v:nameU="Format" v:val="VT0(0):26"/>
				<v:ud v:nameU="ActiveObject" v:prompt="0,0626" v:val="VT0(0):26"/>
			</v:userDefs>
			<title>Part, Lifeline.594</title>
			<g id="shape595-2" v:mID="595" v:groupContext="shape" transform="translate(72,0)">
				<title>Sheet.595</title>
				<path d="M0 595.28 L0 559.28 L0 595.28 Z" class="st1"/>
			</g>
			<g id="shape596-5" v:mID="596" v:groupContext="shape">
				<title>Sheet.596</title>
				<path d="M72 595.28 L0 595.28 L72 595.28 Z" class="st1"/>
			</g>
			<g id="shape597-8" v:mID="597" v:groupContext="shape">
				<title>Sheet.597</title>
				<path d="M72 595.28 L0 595.28 L72 595.28 Z" class="st1"/>
			</g>
			<g id="shape598-11" v:mID="598" v:groupContext="shape">
				<title>Sheet.598</title>
				<path d="M72 595.28 L0 595.28 L72 595.28 Z" class="st1"/>
			</g>
			<g id="shape599-14" v:mID="599" v:groupContext="shape">
				<title>Sheet.599</title>
				<desc>:Web browser</desc>
				<v:userDefs>
					<v:ud v:nameU="TabSize" v:val="VT0(0.125):0"/>
				</v:userDefs>
				<v:textBlock v:margins="rect(4,4,4,4)"/>
				<v:textRect cx="36" cy="577.276" width="72" height="36"/>
				<path d="M72 595.28 L72 559.28 L0 559.28 L0 595.28 L72 595.28 ZM0 595.28 L0 559.28 L0 595.28 ZM72 559.28 L72 595.28
							 L72 559.28 Z" class="st1"/>
				<path d="M72 595.28 L72 559.28" class="st2"/>
				<path d="M0 595.28 L0 559.28" class="st2"/>
				<path d="M0 559.28 L72 559.28" class="st2"/>
				<path d="M0 595.28 L72 595.28" class="st2"/>
				<text x="12.96" y="579.68" class="st3" v:langID="1033"><v:paragraph v:horizAlign="1"/><v:tabList/>:Web browser</text>			</g>
		</g>
		<g id="group600-21" transform="translate(108,-540)" v:mID="600" v:groupContext="group">
			<v:userDefs>
				<v:ud v:nameU="F" v:val="VT0(1):26"/>
				<v:ud v:nameU="Format" v:val="VT0(0):26"/>
				<v:ud v:nameU="ActiveObject" v:prompt="0,0626" v:val="VT0(0):26"/>
			</v:userDefs>
			<title>Part, Lifeline.600</title>
			<g id="shape601-22" v:mID="601" v:groupContext="shape" transform="translate(72,0)">
				<title>Sheet.601</title>
				<path d="M0 595.28 L0 559.28 L0 595.28 Z" class="st1"/>
			</g>
			<g id="shape602-25" v:mID="602" v:groupContext="shape">
				<title>Sheet.602</title>
				<path d="M72 595.28 L0 595.28 L72 595.28 Z" class="st1"/>
			</g>
			<g id="shape603-28" v:mID="603" v:groupContext="shape">
				<title>Sheet.603</title>
				<path d="M72 595.28 L0 595.28 L72 595.28 Z" class="st1"/>
			</g>
			<g id="shape604-31" v:mID="604" v:groupContext="shape">
				<title>Sheet.604</title>
				<path d="M72 595.28 L0 595.28 L72 595.28 Z" class="st1"/>
			</g>
			<g id="shape605-34" v:mID="605" v:groupContext="shape">
				<title>Sheet.605</title>
				<desc>:Kibana</desc>
				<v:userDefs>
					<v:ud v:nameU="TabSize" v:val="VT0(0.125):0"/>
				</v:userDefs>
				<v:textBlock v:margins="rect(4,4,4,4)"/>
				<v:textRect cx="36" cy="577.276" width="72" height="36"/>
				<path d="M72 595.28 L72 559.28 L0 559.28 L0 595.28 L72 595.28 ZM0 595.28 L0 559.28 L0 595.28 ZM72 559.28 L72 595.28
							 L72 559.28 Z" class="st1"/>
				<path d="M72 595.28 L72 559.28" class="st2"/>
				<path d="M0 595.28 L0 559.28" class="st2"/>
				<path d="M0 559.28 L72 559.28" class="st2"/>
				<path d="M0 595.28 L72 595.28" class="st2"/>
				<text x="23.9" y="579.68" class="st3" v:langID="1033"><v:paragraph v:horizAlign="1"/><v:tabList/>:Kibana</text>			</g>
		</g>
		<g id="group606-41" transform="translate(198,-540)" v:mID="606" v:groupContext="group">
			<v:userDefs>
				<v:ud v:nameU="F" v:val="VT0(1):26"/>
				<v:ud v:nameU="Format" v:val="VT0(0):26"/>
				<v:ud v:nameU="ActiveObject" v:prompt="0,0626" v:val="VT0(0):26"/>
			</v:userDefs>
			<title>Part, Lifeline.606</title>
			<g id="shape607-42" v:mID="607" v:groupContext="shape" transform="translate(72,0)">
				<title>Sheet.607</title>
				<path d="M0 595.28 L0 559.28 L0 595.28 Z" class="st1"/>
			</g>
			<g id="shape608-45" v:mID="608" v:groupContext="shape">
				<title>Sheet.608</title>
				<path d="M72 595.28 L0 595.28 L72 595.28 Z" class="st1"/>
			</g>
			<g id="shape609-48" v:mID="609" v:groupContext="shape">
				<title>Sheet.609</title>
				<path d="M72 595.28 L0 595.28 L72 595.28 Z" class="st1"/>
			</g>
			<g id="shape610-51" v:mID="610" v:groupContext="shape">
				<title>Sheet.610</title>
				<path d="M72 595.28 L0 595.28 L72 595.28 Z" class="st1"/>
			</g>
			<g id="shape611-54" v:mID="611" v:groupContext="shape">
				<title>Sheet.611</title>
				<desc>:Elasticsearch</desc>
				<v:userDefs>
					<v:ud v:nameU="TabSize" v:val="VT0(0.125):0"/>
				</v:userDefs>
				<v:textBlock v:margins="rect(4,4,4,4)"/>
				<v:textRect cx="36" cy="577.276" width="72" height="36"/>
				<path d="M72 595.28 L72 559.28 L0 559.28 L0 595.28 L72 595.28 ZM0 595.28 L0 559.28 L0 595.28 ZM72 559.28 L72 595.28
							 L72 559.28 Z" class="st1"/>
				<path d="M72 595.28 L72 559.28" class="st2"/>
				<path d="M0 595.28 L0 559.28" class="st2"/>
				<path d="M0 559.28 L72 559.28" class="st2"/>
				<path d="M0 595.28 L72 595.28" class="st2"/>
				<text x="13.97" y="579.68" class="st3" v:langID="1033"><v:paragraph v:horizAlign="1"/><v:tabList/>:Elasticsearch</text>			</g>
		</g>
		<g id="shape614-61" v:mID="614" v:groupContext="shape" transform="translate(54,650.551) scale(1,-1)">
			<title>Lifeline.614</title>
			<path d="M0 595.28 L0 473.78" class="st4"/>
		</g>
		<g id="shape615-64" v:mID="615" v:groupContext="shape" transform="translate(144,650.551) scale(1,-1)">
			<title>Lifeline.615</title>
			<path d="M0 595.28 L0 473.78" class="st4"/>
		</g>
		<g id="shape616-67" v:mID="616" v:groupContext="shape" transform="translate(234,650.551) scale(1,-1)">
			<title>Lifeline.616</title>
			<path d="M0 595.28 L0 473.78" class="st4"/>
		</g>
		<g id="shape680-70" v:mID="680" v:groupContext="shape" transform="translate(645.676,64.2756) rotate(90)">
			<title>Exec.Occurrence, Coregion.680</title>
			<path d="M0 595.28 L0 588.08 L90 588.08 L90 595.28 L0 595.28 Z" class="st5"/>
		</g>
		<g id="shape681-72" v:mID="681" v:groupContext="shape" transform="translate(147.6,-495)">
			<title>Message (seq.diag).681</title>
			<desc>&#60;&#60; query &#62;&#62;</desc>
			<v:userDefs>
				<v:ud v:nameU="State" v:val="VT0(1):26"/>
				<v:ud v:nameU="LostFound" v:val="VT0(0):26"/>
			</v:userDefs>
			<v:textBlock v:margins="rect(4,4,4,4)"/>
			<v:textRect cx="41.4" cy="586.276" width="48.17" height="17.6036"/>
			<path d="M0 595.28 L77.28 595.28" class="st6"/>
			<rect v:rectContext="textBkgnd" x="21.3181" y="581.476" width="38.3519" height="9.59985" class="st8"/>
			<text x="21.32" y="588.68" class="st3" v:langID="1033"><v:paragraph/><v:tabList/>&#60;&#60; query &#62;&#62;</text>		</g>
		<g id="shape682-80" v:mID="682" v:groupContext="shape" transform="translate(735.676,82.2756) rotate(90)">
			<title>Exec.Occurrence, Coregion.682</title>
			<path d="M0 595.28 L0 588.08 L54 588.08 L54 595.28 L0 595.28 Z" class="st5"/>
		</g>
		<g id="shape683-82" v:mID="683" v:groupContext="shape" transform="translate(825.676,100.276) rotate(90)">
			<title>Exec.Occurrence, Coregion.683</title>
			<path d="M0 595.28 L0 588.08 L18 588.08 L18 595.28 L0 595.28 Z" class="st5"/>
		</g>
		<g id="shape684-84" v:mID="684" v:groupContext="shape" transform="translate(230.4,713.551) rotate(180)">
			<title>Message (seq.diag).684</title>
			<v:userDefs>
				<v:ud v:nameU="State" v:val="VT0(1):26"/>
				<v:ud v:nameU="LostFound" v:val="VT0(0):26"/>
				<v:ud v:nameU="State" v:prompt="" v:val="VT0(5):26"/>
			</v:userDefs>
			<path d="M0 595.28 L82.8 595.28" class="st9"/>
		</g>
		<g id="shape685-90" v:mID="685" v:groupContext="shape" transform="translate(57.6,-513)">
			<title>Message (seq.diag).685</title>
			<desc>&#60;&#60; use dashboard &#62;&#62;</desc>
			<v:userDefs>
				<v:ud v:nameU="State" v:val="VT0(1):26"/>
				<v:ud v:nameU="LostFound" v:val="VT0(0):26"/>
			</v:userDefs>
			<v:textBlock v:margins="rect(4,4,4,4)"/>
			<v:textRect cx="41.4" cy="586.276" width="77.11" height="17.6036"/>
			<path d="M0 595.28 L77.28 595.28" class="st6"/>
			<rect v:rectContext="textBkgnd" x="6.84934" y="581.476" width="67.2893" height="9.59985" class="st10"/>
			<text x="6.85" y="588.68" class="st3" v:langID="1033"><v:paragraph/><v:tabList/>&#60;&#60; use dashboard &#62;&#62;</text>		</g>
		<g id="shape688-97" v:mID="688" v:groupContext="shape" transform="translate(140.4,731.551) rotate(180)">
			<title>Message (seq.diag).688</title>
			<v:userDefs>
				<v:ud v:nameU="State" v:val="VT0(1):26"/>
				<v:ud v:nameU="LostFound" v:val="VT0(0):26"/>
				<v:ud v:nameU="State" v:prompt="" v:val="VT0(5):26"/>
			</v:userDefs>
			<path d="M0 595.28 L82.8 595.28" class="st9"/>
		</g>
	</g>
</svg>
